# Blender v2.93.4 OBJ File: 'manos jam.blend'
# www.blender.org
mtllib Plato_0.mtl
v 0.000000 -0.008803 -1.000000
v 0.000000 0.008803 -1.000000
v 0.500000 -0.008803 -0.866025
v 0.500000 0.008803 -0.866025
v 0.866025 -0.008803 -0.500000
v 0.866025 0.008803 -0.500000
v 1.000000 -0.008803 0.000000
v 1.000000 0.008803 0.000000
v 0.866025 -0.008803 0.500000
v 0.866025 0.008803 0.500000
v 0.500000 -0.008803 0.866025
v 0.500000 0.008803 0.866025
v -0.000000 -0.008803 1.000000
v -0.000000 0.008803 1.000000
v -0.500000 -0.008803 0.866025
v -0.500000 0.008803 0.866025
v -0.866025 -0.008803 0.500000
v -0.866025 0.008803 0.500000
v -1.000000 -0.008803 -0.000000
v -1.000000 0.008803 -0.000000
v -0.866025 -0.008803 -0.500000
v -0.866025 0.008803 -0.500000
v -0.500000 -0.008803 -0.866025
v -0.500000 0.008803 -0.866025
v -0.006866 0.008803 0.677783
v 0.340925 0.008803 0.584593
v 0.595526 0.008803 0.329992
v 0.688717 0.008803 -0.017799
v 0.595526 0.008803 -0.365591
v -0.702448 0.008803 -0.017800
v -0.609258 0.008803 0.329992
v -0.609258 0.008803 -0.365591
v 0.340925 0.008803 -0.620192
v -0.006866 0.008803 -0.713382
v -0.354657 0.008803 0.584593
v -0.354657 0.008803 -0.620191
v -0.006866 -0.008803 0.677783
v 0.340925 -0.008803 0.584593
v 0.595526 -0.008803 0.329992
v 0.688717 -0.008803 -0.017799
v 0.595526 -0.008803 -0.365591
v -0.702448 -0.008803 -0.017800
v -0.609258 -0.008803 0.329992
v -0.609258 -0.008803 -0.365591
v 0.340925 -0.008803 -0.620192
v -0.006866 -0.008803 -0.713382
v -0.354657 -0.008803 0.584593
v -0.354657 -0.008803 -0.620191
v -0.006866 -0.006092 0.648086
v 0.326077 -0.006092 0.558874
v 0.569808 -0.006092 0.315143
v 0.659019 -0.006092 -0.017799
v 0.569808 -0.006092 -0.350742
v -0.672751 -0.006092 -0.017800
v -0.583539 -0.006092 0.315143
v 0.326077 -0.006092 -0.594473
v -0.006866 -0.006092 -0.683685
v -0.339808 -0.006092 0.558874
v -0.583539 -0.006092 -0.350742
v -0.339808 -0.006092 -0.594473
v -0.006866 -0.042592 0.648086
v 0.326077 -0.042592 0.558874
v 0.569808 -0.042592 0.315143
v 0.659019 -0.042592 -0.017799
v 0.569808 -0.042592 -0.350742
v -0.672751 -0.042592 -0.017800
v -0.583539 -0.042592 0.315143
v -0.583539 -0.042592 -0.350742
v 0.326077 -0.042592 -0.594473
v -0.006866 -0.042592 -0.683685
v -0.339808 -0.042592 0.558874
v -0.339808 -0.042592 -0.594473
v -0.006866 -0.050973 0.595933
v 0.300001 -0.050973 0.513708
v 0.524642 -0.050973 0.289067
v 0.606867 -0.050973 -0.017799
v 0.524642 -0.050973 -0.324666
v -0.620598 -0.050973 -0.017800
v -0.538374 -0.050973 0.289067
v 0.300001 -0.050973 -0.549308
v -0.006866 -0.050973 -0.631532
v -0.313732 -0.050973 0.513708
v -0.538374 -0.050973 -0.324666
v -0.313732 -0.050973 -0.549307
v -0.006866 -0.086477 0.595933
v 0.300001 -0.086477 0.513708
v 0.524642 -0.086477 0.289067
v 0.606867 -0.086477 -0.017799
v 0.524642 -0.086477 -0.324666
v -0.620598 -0.086477 -0.017800
v -0.538374 -0.086477 0.289067
v -0.538374 -0.086477 -0.324666
v 0.300001 -0.086477 -0.549308
v -0.006866 -0.086477 -0.631532
v -0.313732 -0.086477 0.513708
v -0.313732 -0.086477 -0.549307
vt 1.000000 0.500000
vt 1.000000 1.000000
vt 0.916667 1.000000
vt 0.916667 0.500000
vt 0.833333 1.000000
vt 0.833333 0.500000
vt 0.750000 1.000000
vt 0.750000 0.500000
vt 0.666667 1.000000
vt 0.666667 0.500000
vt 0.583333 1.000000
vt 0.583333 0.500000
vt 0.500000 1.000000
vt 0.500000 0.500000
vt 0.416667 1.000000
vt 0.416667 0.500000
vt 0.333333 1.000000
vt 0.333333 0.500000
vt 0.250000 1.000000
vt 0.250000 0.500000
vt 0.166667 1.000000
vt 0.166667 0.500000
vt 0.042154 0.370000
vt 0.010000 0.250000
vt 0.042154 0.130000
vt 0.130000 0.042154
vt 0.250000 0.010000
vt 0.370000 0.042154
vt 0.457846 0.130000
vt 0.490000 0.250000
vt 0.457846 0.370000
vt 0.370000 0.457846
vt 0.331822 0.398846
vt 0.392926 0.337742
vt 0.415292 0.254272
vt 0.392926 0.170802
vt 0.331822 0.109698
vt 0.248352 0.087332
vt 0.164882 0.109698
vt 0.103778 0.170802
vt 0.081412 0.254272
vt 0.103778 0.337742
vt 0.250000 0.490000
vt 0.130000 0.457846
vt 0.164882 0.398846
vt 0.248352 0.421212
vt 0.083333 1.000000
vt 0.083333 0.500000
vt 0.000000 1.000000
vt 0.000000 0.500000
vt 0.603778 0.337742
vt 0.542154 0.370000
vt 0.630000 0.457846
vt 0.750000 0.490000
vt 0.870000 0.457846
vt 0.831822 0.398846
vt 0.748352 0.421212
vt 0.664882 0.398846
vt 0.957846 0.370000
vt 0.990000 0.250000
vt 0.957846 0.130000
vt 0.870000 0.042154
vt 0.750000 0.010000
vt 0.630000 0.042154
vt 0.542154 0.130000
vt 0.510000 0.250000
vt 0.581412 0.254272
vt 0.603778 0.170802
vt 0.664882 0.109698
vt 0.748352 0.087332
vt 0.831822 0.109698
vt 0.892926 0.170802
vt 0.915292 0.254272
vt 0.892926 0.337742
vt 0.331822 0.109698
vt 0.248352 0.087332
vt 0.248352 0.421212
vt 0.331822 0.398846
vt 0.915292 0.254272
vt 0.892926 0.337742
vt 0.664882 0.109698
vt 0.748352 0.087332
vt 0.892926 0.170802
vt 0.164882 0.398846
vt 0.664882 0.398846
vt 0.603778 0.337742
vt 0.831822 0.109698
vt 0.603778 0.170802
vt 0.103778 0.170802
vt 0.081412 0.254272
vt 0.164882 0.109698
vt 0.164882 0.109698
vt 0.103778 0.170802
vt 0.581412 0.254272
vt 0.603778 0.337742
vt 0.581412 0.254272
vt 0.248352 0.087332
vt 0.248352 0.421212
vt 0.331822 0.398846
vt 0.603778 0.170802
vt 0.748352 0.421212
vt 0.748352 0.421212
vt 0.664882 0.398846
vt 0.081412 0.254272
vt 0.915292 0.254272
vt 0.892926 0.337742
vt 0.664882 0.109698
vt 0.748352 0.087332
vt 0.415292 0.254272
vt 0.392926 0.337742
vt 0.392926 0.337742
vt 0.415292 0.254272
vt 0.892926 0.170802
vt 0.392926 0.170802
vt 0.103778 0.337742
vt 0.831822 0.398846
vt 0.331822 0.109698
vt 0.831822 0.109698
vt 0.164882 0.398846
vt 0.831822 0.398846
vt 0.103778 0.337742
vt 0.392926 0.170802
vt 0.000000 0.000000
vt 0.000000 0.000000
vt 0.000000 0.000000
vt 0.000000 0.000000
vt 0.000000 0.000000
vt 0.000000 0.000000
vt 0.000000 0.000000
vt 0.000000 0.000000
vt 0.000000 0.000000
vt 0.000000 0.000000
vt 0.000000 0.000000
vt 0.000000 0.000000
vt 0.000000 0.000000
vt 0.000000 0.000000
vt 0.000000 0.000000
vt 0.000000 0.000000
vt 0.000000 0.000000
vt 0.000000 0.000000
vt 0.000000 0.000000
vt 0.000000 0.000000
vt 0.000000 0.000000
vt 0.000000 0.000000
vt 0.000000 0.000000
vt 0.000000 0.000000
vn 0.0000 -0.6532 -0.7571
vn 0.0000 0.6532 -0.7571
vn 0.3786 0.6532 -0.6557
vn 0.3786 -0.6532 -0.6557
vn 0.6557 0.6532 -0.3786
vn 0.6557 -0.6532 -0.3786
vn 0.7571 0.6532 0.0000
vn 0.7571 -0.6532 0.0000
vn 0.6557 0.6532 0.3786
vn 0.6557 -0.6532 0.3786
vn 0.3786 0.6532 0.6557
vn 0.3786 -0.6532 0.6557
vn 0.0000 0.6532 0.7571
vn 0.0000 -0.6532 0.7571
vn -0.3786 0.6532 0.6557
vn -0.3786 -0.6532 0.6557
vn -0.6557 0.6532 0.3786
vn -0.6557 -0.6532 0.3786
vn -0.7571 0.6532 0.0000
vn -0.7571 -0.6532 0.0000
vn -0.6557 0.6532 -0.3786
vn -0.6557 -0.6532 -0.3786
vn -0.0967 0.9811 0.1675
vn -0.2009 0.9727 0.1160
vn -0.2320 0.9727 0.0000
vn -0.2009 0.9727 -0.1160
vn -0.1160 0.9727 -0.2009
vn 0.0000 0.9727 -0.2320
vn 0.1160 0.9727 -0.2009
vn 0.2009 0.9727 -0.1160
vn 0.2320 0.9727 0.0000
vn 0.1675 0.9811 0.0967
vn -0.3786 0.6532 -0.6557
vn 0.1160 0.9727 0.2009
vn 0.0000 0.9727 0.2320
vn -0.3786 -0.6532 -0.6557
vn -0.3050 -0.9359 -0.1761
vn 0.1761 -0.9359 -0.3050
vn 0.0000 -0.9067 -0.4218
vn -0.2109 -0.9067 -0.3653
vn -0.4218 -0.9067 0.0000
vn -0.3653 -0.9067 0.2109
vn -0.2109 -0.9067 0.3653
vn 0.0000 -0.9067 0.4218
vn 0.2109 -0.9067 0.3653
vn 0.3653 -0.9067 0.2109
vn 0.4218 -0.9067 0.0000
vn 0.3653 -0.9067 -0.2109
vn -0.2700 0.8416 -0.4677
vn 0.0000 0.8416 -0.5401
vn 0.0000 0.8416 0.5401
vn -0.2700 0.8416 0.4677
vn 0.7057 -0.7085 0.0000
vn 0.6111 -0.7085 -0.3528
vn -0.3528 -0.7085 0.6111
vn 0.0000 -0.7085 0.7057
vn 0.6111 -0.7085 0.3528
vn 0.2700 0.8416 0.4677
vn -0.3528 -0.7085 -0.6111
vn -0.6111 -0.7085 -0.3528
vn 0.3528 -0.7085 0.6111
vn -0.6111 -0.7085 0.3528
vn 0.4677 0.8416 -0.2700
vn 0.5401 0.8416 0.0000
vn 0.2700 0.8416 -0.4677
vn 0.3551 0.7038 -0.6152
vn 0.6152 0.7038 -0.3551
vn -0.7057 -0.7085 0.0000
vn 0.8642 -0.0651 0.4989
vn 0.9979 -0.0651 0.0000
vn 0.0000 0.7038 -0.7103
vn 0.0000 0.7038 0.7103
vn -0.3551 0.7038 0.6152
vn 0.8642 -0.0651 -0.4989
vn 0.0000 -0.7085 -0.7057
vn 0.0000 -0.0651 0.9979
vn 0.4989 -0.0651 0.8642
vn 0.7103 0.7038 0.0000
vn -0.9979 -0.0651 0.0000
vn -0.8642 -0.0651 0.4989
vn 0.4989 -0.0651 -0.8642
vn 0.0000 -0.0651 -0.9979
vn -0.5401 0.8416 0.0000
vn -0.4677 0.8416 0.2700
vn -0.6152 0.7038 0.3551
vn -0.7103 0.7038 0.0000
vn -0.8642 -0.0651 -0.4989
vn -0.4677 0.8416 -0.2700
vn 0.4677 0.8416 0.2700
vn 0.3528 -0.7085 -0.6111
vn -0.3551 0.7038 -0.6152
vn -0.4989 -0.0651 -0.8642
vn 0.3551 0.7038 0.6152
vn -0.4989 -0.0651 0.8642
vn 0.6152 0.7038 0.3551
vn -0.6152 0.7038 -0.3551
g Cylinder.003_Cylinder.004_None
usemtl None
s 1
f 1/1/1 2/2/2 4/3/3 3/4/4
f 3/4/4 4/3/3 6/5/5 5/6/6
f 5/6/6 6/5/5 8/7/7 7/8/8
f 7/8/8 8/7/7 10/9/9 9/10/10
f 9/10/10 10/9/9 12/11/11 11/12/12
f 11/12/12 12/11/11 14/13/13 13/14/14
f 13/14/14 14/13/13 16/15/15 15/16/16
f 15/16/16 16/15/15 18/17/17 17/18/18
f 17/18/18 18/17/17 20/19/19 19/20/20
f 19/20/20 20/19/19 22/21/21 21/22/22
f 22/23/21 20/24/19 18/25/17 16/26/15 14/27/13 12/28/11 10/29/9 8/30/7 6/31/5 4/32/3 33/33/23 29/34/24 28/35/25 27/36/26 26/37/27 25/38/28 35/39/29 31/40/30 30/41/31 32/42/32
f 33/33/23 4/32/3 2/43/2 24/44/33 22/23/21 32/42/32 36/45/34 34/46/35
f 21/22/22 22/21/21 24/47/33 23/48/36
f 23/48/36 24/47/33 2/49/2 1/50/1
f 44/51/37 21/52/22 23/53/36 1/54/1 3/55/4 45/56/38 46/57/39 48/58/40
f 45/56/38 3/55/4 5/59/6 7/60/8 9/61/10 11/62/12 13/63/14 15/64/16 17/65/18 19/66/20 21/52/22 44/51/37 42/67/41 43/68/42 47/69/43 37/70/44 38/71/45 39/72/46 40/73/47 41/74/48
f 25/38/28 26/37/27 50/75/49 49/76/50
f 33/33/23 34/46/35 57/77/51 56/78/52
f 41/74/48 40/73/47 64/79/53 65/80/54
f 37/70/44 47/69/43 71/81/55 61/82/56
f 40/73/47 39/72/46 63/83/57 64/79/53
f 34/46/35 36/45/34 60/84/58 57/77/51
f 44/51/37 48/58/40 72/85/59 68/86/60
f 39/72/46 38/71/45 62/87/61 63/83/57
f 47/69/43 43/68/42 67/88/62 71/81/55
f 30/41/31 31/40/30 55/89/63 54/90/64
f 35/39/29 25/38/28 49/76/50 58/91/65
f 38/71/45 37/70/44 61/82/56 62/87/61
f 55/89/63 58/91/65 82/92/66 79/93/67
f 66/94/68 68/86/60 92/95/69 90/96/70
f 58/91/65 49/76/50 73/97/71 82/92/66
f 56/78/52 57/77/51 81/98/72 80/99/73
f 67/88/62 66/94/68 90/96/70 91/100/74
f 72/85/59 70/101/75 94/102/76 96/103/77
f 54/90/64 55/89/63 79/93/67 78/104/78
f 65/80/54 64/79/53 88/105/79 89/106/80
f 61/82/56 71/81/55 95/107/81 85/108/82
f 52/109/83 53/110/84 77/111/85 76/112/86
f 64/79/53 63/83/57 87/113/87 88/105/79
f 68/86/60 72/85/59 96/103/77 92/95/69
f 43/68/42 42/67/41 66/94/68 67/88/62
f 29/34/24 33/33/23 56/78/52 53/110/84
f 31/40/30 35/39/29 58/91/65 55/89/63
f 26/37/27 27/36/26 51/114/88 50/75/49
f 42/67/41 44/51/37 68/86/60 66/94/68
f 32/42/32 30/41/31 54/90/64 59/115/89
f 36/45/34 32/42/32 59/115/89 60/84/58
f 27/36/26 28/35/25 52/109/83 51/114/88
f 45/56/38 41/74/48 65/80/54 69/116/90
f 48/58/40 46/57/39 70/101/75 72/85/59
f 28/35/25 29/34/24 53/110/84 52/109/83
f 46/57/39 45/56/38 69/116/90 70/101/75
f 74/117/91 86/118/92 85/108/82 73/97/71
f 95/107/81 82/92/66 73/97/71 85/108/82
f 96/103/77 94/102/76 81/98/72 84/119/93
f 79/93/67 91/100/74 90/96/70 78/104/78
f 82/92/66 95/107/81 91/100/74 79/93/67
f 81/98/72 94/102/76 93/120/94 80/99/73
f 93/120/94 89/106/80 77/111/85 80/99/73
f 77/111/85 89/106/80 88/105/79 76/112/86
f 84/119/93 83/121/95 92/95/69 96/103/77
f 75/122/96 87/113/87 86/118/92 74/117/91
f 92/95/69 83/121/95 78/104/78 90/96/70
f 76/112/86 88/105/79 87/113/87 75/122/96
f 53/110/84 56/78/52 80/99/73 77/111/85
f 69/116/90 65/80/54 89/106/80 93/120/94
f 60/84/58 59/115/89 83/121/95 84/119/93
f 59/115/89 54/90/64 78/104/78 83/121/95
f 49/76/50 50/75/49 74/117/91 73/97/71
f 70/101/75 69/116/90 93/120/94 94/102/76
f 62/87/61 61/82/56 85/108/82 86/118/92
f 57/77/51 60/84/58 84/119/93 81/98/72
f 50/75/49 51/114/88 75/122/96 74/117/91
f 71/81/55 67/88/62 91/100/74 95/107/81
f 63/83/57 62/87/61 86/118/92 87/113/87
f 51/114/88 52/109/83 76/112/86 75/122/96
f 95/123/81 85/124/82 86/125/92 87/126/87 88/127/79 89/128/80 93/129/94 94/130/76 96/131/77 92/132/69 90/133/70 91/134/74
f 82/135/66 73/136/71 74/137/91 75/138/96 76/139/86 77/140/85 80/141/73 81/142/72 84/143/93 83/144/95 78/145/78 79/146/67
