# Blender v2.93.4 OBJ File: 'manos jam.blend'
# www.blender.org
mtllib tenedor_0.mtl
v -0.028541 0.244134 -0.020175
v -0.028541 0.246755 -0.055493
v -0.042015 -0.286660 0.015358
v -0.042015 -0.286660 -0.015374
v -0.056386 -0.518430 -0.011595
v -0.056386 -0.518430 0.022923
v 0.001930 -0.835860 -0.014692
v 0.001930 0.246750 -0.055456
v 0.001930 -0.835860 0.026021
v 0.001930 0.244136 -0.020138
v 0.001930 -0.286660 0.015348
v 0.001930 -0.286660 -0.015385
v 0.001930 -0.518430 -0.011595
v 0.001930 -0.518430 0.022923
v -0.072818 -0.765468 0.025473
v -0.064025 -0.818487 0.026021
v -0.064025 -0.818487 -0.014692
v -0.072818 -0.765468 -0.014145
v -0.073804 0.339762 -0.035746
v -0.073804 0.344564 -0.087776
v 0.001930 0.345738 -0.087791
v 0.001930 0.340920 -0.035863
v -0.115138 0.415868 -0.039440
v -0.115138 0.422507 -0.091372
v 0.001930 0.420123 -0.091254
v 0.001930 0.413552 -0.039424
v -0.122108 0.518589 -0.048041
v -0.122108 0.524606 -0.082975
v 0.001930 0.526034 -0.091307
v 0.001930 0.517147 -0.039652
v -0.027228 -0.518430 -0.011595
v -0.020042 -0.286660 -0.015379
v -0.013305 0.246756 -0.055502
v -0.027228 -0.518430 0.022923
v -0.020042 -0.286660 0.015353
v -0.013305 0.244134 -0.020185
v -0.033028 0.340919 -0.035892
v -0.033028 0.345744 -0.087820
v -0.060095 0.413552 -0.039393
v -0.060095 0.420133 -0.091293
v -0.080215 0.518591 -0.048069
v -0.080215 0.524614 -0.083003
v -0.043027 0.299153 -0.084489
v 0.001930 0.296190 -0.084234
v -0.043027 0.295405 -0.032516
v 0.001930 0.292512 -0.032258
v -0.023167 0.292510 -0.032312
v -0.023167 0.296198 -0.084286
v -0.117772 0.539231 -0.047371
v -0.117772 0.545524 -0.082279
v -0.080672 0.539232 -0.047381
v -0.080672 0.545526 -0.082289
v -0.106238 0.725361 -0.045216
v -0.106238 0.729803 -0.065504
v -0.072811 0.725361 -0.045216
v -0.072811 0.729803 -0.065504
v -0.085331 0.915342 -0.025384
v -0.085331 0.917614 -0.035755
v -0.070444 0.915342 -0.025384
v -0.070444 0.917614 -0.035755
v -0.010916 0.547225 -0.090631
v -0.010916 0.537914 -0.039014
v -0.048751 0.539426 -0.047407
v -0.048751 0.545718 -0.082270
v -0.018377 0.729786 -0.065427
v -0.018377 0.722968 -0.034289
v -0.041289 0.724075 -0.039343
v -0.041289 0.728680 -0.060374
v -0.022490 0.916084 -0.034151
v -0.022490 0.913792 -0.023680
v -0.030194 0.914164 -0.025379
v -0.030194 0.915712 -0.032451
v 0.028541 0.244134 -0.020175
v 0.028541 0.246755 -0.055493
v 0.042015 -0.286660 0.015358
v 0.042015 -0.286660 -0.015374
v 0.056386 -0.518430 -0.011595
v 0.056386 -0.518430 0.022923
v -0.001930 -0.835860 -0.014692
v -0.001930 0.246750 -0.055456
v -0.001930 -0.835860 0.026021
v -0.001930 0.244136 -0.020138
v -0.001930 -0.286660 0.015348
v -0.001930 -0.286660 -0.015385
v -0.001930 -0.518430 -0.011595
v -0.001930 -0.518430 0.022923
v 0.072818 -0.765468 0.025473
v 0.064025 -0.818487 0.026021
v 0.064025 -0.818487 -0.014692
v 0.072818 -0.765468 -0.014145
v 0.073804 0.339762 -0.035746
v 0.073804 0.344564 -0.087776
v -0.001930 0.345738 -0.087791
v -0.001930 0.340920 -0.035863
v 0.115138 0.415868 -0.039440
v 0.115138 0.422507 -0.091372
v -0.001930 0.420123 -0.091254
v -0.001930 0.413552 -0.039424
v 0.122108 0.518589 -0.048041
v 0.122108 0.524606 -0.082975
v -0.001930 0.526034 -0.091307
v -0.001930 0.517147 -0.039652
v 0.027228 -0.518430 -0.011595
v 0.020042 -0.286660 -0.015379
v 0.013305 0.246756 -0.055502
v 0.027228 -0.518430 0.022923
v 0.020042 -0.286660 0.015353
v 0.013305 0.244134 -0.020185
v 0.033028 0.340919 -0.035892
v 0.033028 0.345744 -0.087820
v 0.060095 0.413552 -0.039393
v 0.060095 0.420133 -0.091293
v 0.080215 0.518591 -0.048069
v 0.080215 0.524614 -0.083003
v 0.043027 0.299153 -0.084489
v -0.001930 0.296190 -0.084234
v 0.043027 0.295405 -0.032516
v -0.001930 0.292512 -0.032258
v 0.023167 0.292510 -0.032312
v 0.023167 0.296198 -0.084286
v 0.117772 0.539231 -0.047371
v 0.117772 0.545524 -0.082279
v 0.080672 0.539232 -0.047381
v 0.080672 0.545526 -0.082289
v 0.106238 0.725361 -0.045216
v 0.106238 0.729803 -0.065504
v 0.072811 0.725361 -0.045216
v 0.072811 0.729803 -0.065504
v 0.085331 0.915342 -0.025384
v 0.085331 0.917614 -0.035755
v 0.070444 0.915342 -0.025384
v 0.070444 0.917614 -0.035755
v 0.010916 0.547225 -0.090631
v 0.010916 0.537914 -0.039014
v 0.048751 0.539426 -0.047407
v 0.048751 0.545718 -0.082270
v 0.018377 0.729786 -0.065427
v 0.018377 0.722968 -0.034289
v 0.041289 0.724075 -0.039343
v 0.041289 0.728680 -0.060374
v 0.022490 0.916084 -0.034151
v 0.022490 0.913792 -0.023680
v 0.030194 0.914164 -0.025379
v 0.030194 0.915712 -0.032451
vt 0.500000 0.000000
vt 0.625000 0.000000
vt 0.625000 0.250000
vt 0.500000 0.250000
vt 0.500000 0.937500
vt 0.625000 0.937500
vt 0.625000 1.000000
vt 0.500000 1.000000
vt 0.438164 0.937500
vt 0.438164 1.000000
vt 0.438164 0.000000
vt 0.438164 0.250000
vt 0.375000 0.875000
vt 0.438164 0.875000
vt 0.386161 1.000000
vt 0.375000 0.980325
vt 0.375000 0.269674
vt 0.386161 0.250000
vt 0.438164 0.312500
vt 0.438164 0.375000
vt 0.375000 0.375000
vt 0.500000 0.312500
vt 0.500000 0.375000
vt 0.625000 0.312500
vt 0.625000 0.250000
vt 0.625000 0.250000
vt 0.625000 0.312500
vt 0.386161 0.000000
vt 0.625000 0.312500
vt 0.625000 0.375000
vt 0.144674 0.500000
vt 0.144674 0.750000
vt 0.125000 0.747371
vt 0.125000 0.502629
vt 0.250000 0.500000
vt 0.250000 0.750000
vt 0.625000 0.937500
vt 0.625000 0.875000
vt 0.625000 0.875000
vt 0.625000 0.937500
vt 0.625000 0.000000
vt 0.625000 0.000000
vt 0.625000 0.937500
vt 0.625000 0.875000
vt 0.625000 0.312500
vt 0.625000 0.250000
vt 0.625000 0.250000
vt 0.625000 0.312500
vt 0.625000 0.000000
vt 0.625000 0.375000
vt 0.625000 0.375000
vt 0.625000 0.000000
vt 0.625000 0.875000
vt 0.625000 0.937500
vt 0.625000 1.000000
vt 0.625000 1.000000
vt 0.625000 1.000000
vt 0.625000 1.000000
vt 0.625000 0.375000
vt 0.625000 0.375000
vt 0.500000 0.875000
vt 0.625000 0.875000
vt 0.625000 0.312500
vt 0.625000 0.375000
vt 0.625000 0.000000
vt 0.625000 0.250000
vt 0.625000 0.937500
vt 0.625000 0.312500
vt 0.625000 0.312500
vt 0.625000 0.937500
vt 0.625000 1.000000
vt 0.625000 1.000000
vt 0.625000 0.937500
vt 0.625000 1.000000
vt 0.625000 0.250000
vt 0.625000 0.000000
vt 0.625000 0.250000
vt 0.625000 0.312500
vt 0.625000 0.000000
vt 0.625000 0.937500
vt 0.625000 0.937500
vt 0.625000 0.312500
vt 0.000000 0.000000
vt 0.000000 0.000000
vt 0.000000 0.000000
vt 0.000000 0.000000
vt 0.625000 0.875000
vt 0.625000 0.875000
vt 0.625000 0.875000
vt 0.625000 0.937500
vt 0.000000 0.000000
vt 0.000000 0.000000
vt 0.625000 0.375000
vt 0.625000 0.312500
vt 0.625000 0.375000
vt 0.000000 0.000000
vt 0.000000 0.000000
vt 0.500000 0.000000
vt 0.500000 0.250000
vt 0.625000 0.250000
vt 0.625000 0.000000
vt 0.500000 0.937500
vt 0.500000 1.000000
vt 0.625000 1.000000
vt 0.625000 0.937500
vt 0.438164 0.937500
vt 0.438164 1.000000
vt 0.438164 0.000000
vt 0.438164 0.250000
vt 0.375000 0.875000
vt 0.375000 0.980325
vt 0.386161 1.000000
vt 0.438164 0.875000
vt 0.375000 0.269674
vt 0.375000 0.375000
vt 0.438164 0.375000
vt 0.438164 0.312500
vt 0.386161 0.250000
vt 0.500000 0.375000
vt 0.500000 0.312500
vt 0.625000 0.312500
vt 0.625000 0.312500
vt 0.625000 0.250000
vt 0.625000 0.250000
vt 0.386161 0.000000
vt 0.625000 0.375000
vt 0.625000 0.312500
vt 0.144674 0.500000
vt 0.125000 0.502629
vt 0.125000 0.747371
vt 0.144674 0.750000
vt 0.250000 0.750000
vt 0.250000 0.500000
vt 0.625000 0.937500
vt 0.625000 0.937500
vt 0.625000 0.875000
vt 0.625000 0.875000
vt 0.625000 0.000000
vt 0.625000 0.000000
vt 0.625000 0.937500
vt 0.625000 0.875000
vt 0.625000 0.312500
vt 0.625000 0.312500
vt 0.625000 0.250000
vt 0.625000 0.250000
vt 0.625000 0.000000
vt 0.625000 0.375000
vt 0.625000 0.375000
vt 0.625000 0.000000
vt 0.625000 0.937500
vt 0.625000 0.875000
vt 0.625000 1.000000
vt 0.625000 1.000000
vt 0.625000 1.000000
vt 0.625000 1.000000
vt 0.625000 0.375000
vt 0.625000 0.375000
vt 0.500000 0.875000
vt 0.625000 0.875000
vt 0.625000 0.375000
vt 0.625000 0.312500
vt 0.625000 0.250000
vt 0.625000 0.000000
vt 0.625000 0.937500
vt 0.625000 0.937500
vt 0.625000 0.312500
vt 0.625000 0.312500
vt 0.625000 1.000000
vt 0.625000 1.000000
vt 0.625000 1.000000
vt 0.625000 0.937500
vt 0.625000 0.250000
vt 0.625000 0.000000
vt 0.625000 0.250000
vt 0.625000 0.312500
vt 0.625000 0.000000
vt 0.625000 0.312500
vt 0.625000 0.937500
vt 0.625000 0.937500
vt 0.000000 0.000000
vt 0.000000 0.000000
vt 0.000000 0.000000
vt 0.000000 0.000000
vt 0.625000 0.875000
vt 0.625000 0.937500
vt 0.625000 0.875000
vt 0.625000 0.875000
vt 0.000000 0.000000
vt 0.000000 0.000000
vt 0.625000 0.375000
vt 0.625000 0.312500
vt 0.625000 0.375000
vt 0.000000 0.000000
vt 0.000000 0.000000
vn -0.6974 0.0660 0.7136
vn -0.6540 0.0547 0.7545
vn -0.7044 -0.3139 -0.6366
vn -0.7099 -0.0010 -0.7042
vn -0.0001 0.0497 0.9987
vn 0.0023 0.1552 0.9879
vn 0.0007 0.0213 0.9998
vn -0.7019 0.0600 0.7097
vn -0.7080 0.0437 -0.7049
vn -0.1955 -0.7391 0.6446
vn -0.7301 -0.0295 0.6827
vn -0.5894 -0.5338 0.6063
vn -0.5894 -0.5338 -0.6063
vn -0.7301 -0.0295 -0.6827
vn 0.0006 -0.0031 -1.0000
vn -0.1955 -0.7391 -0.6446
vn 0.0001 -0.0457 -0.9989
vn 0.0005 -0.0457 -0.9989
vn -0.0105 -0.3036 -0.9527
vn -0.5167 -0.4304 -0.7401
vn -0.5901 -0.3943 -0.7045
vn 0.0006 -0.0588 -0.9983
vn -0.0078 -0.2959 -0.9552
vn 0.0016 -0.2963 -0.9551
vn 0.0003 0.0612 0.9981
vn -0.0007 0.0612 0.9981
vn -0.0288 0.0428 0.9987
vn -0.0152 0.0529 0.9985
vn -0.6521 -0.1952 0.7325
vn -0.6369 -0.3531 0.6853
vn 0.0037 0.1625 0.9867
vn -0.0019 0.1589 0.9873
vn -0.0155 0.0031 -0.9998
vn -0.7027 -0.1709 -0.6907
vn -0.7412 0.0974 -0.6641
vn 0.1203 0.3160 -0.9411
vn -0.7283 -0.1828 0.6604
vn -0.0284 -0.0064 -0.9996
vn 0.4154 0.3543 -0.8378
vn -0.7426 0.0571 0.6673
vn 0.3334 0.2794 0.9004
vn 0.0795 0.2507 0.9648
vn 0.0010 -0.0588 -0.9983
vn 0.0017 -0.2948 -0.9555
vn -0.0005 0.0497 0.9987
vn -0.0018 0.1554 0.9878
vn -0.6053 0.3317 -0.7235
vn 0.5248 0.2843 -0.8023
vn -0.6729 0.0783 0.7355
vn -0.6838 0.1318 -0.7177
vn 0.6978 -0.0207 0.7159
vn 0.6925 0.0363 -0.7205
vn 0.7021 0.0698 -0.7086
vn 0.7220 -0.0613 0.6891
vn -0.7158 0.0210 0.6980
vn 0.5875 0.4722 0.6571
vn -0.5466 0.5035 0.6691
vn -0.7049 0.1473 -0.6938
vn -0.5398 0.7033 -0.4625
vn 0.5781 0.6728 -0.4615
vn -0.5602 0.2662 0.7844
vn -0.7814 0.0015 0.6240
vn -0.7797 0.1214 -0.6142
vn 0.5011 0.2128 0.8388
vn 0.6239 -0.0112 0.7814
vn 0.5195 0.4751 0.7102
vn -0.6159 0.5256 0.5868
vn 0.6186 0.1374 -0.7736
vn -0.6123 0.6889 -0.3878
vn 0.5033 0.6854 -0.5262
vn 0.6974 0.0660 0.7136
vn 0.7099 -0.0010 -0.7042
vn 0.7044 -0.3139 -0.6366
vn 0.6540 0.0547 0.7545
vn 0.0001 0.0497 0.9987
vn -0.0023 0.1552 0.9879
vn -0.0007 0.0213 0.9998
vn 0.7019 0.0600 0.7097
vn 0.7080 0.0437 -0.7049
vn 0.1955 -0.7391 0.6446
vn 0.5894 -0.5338 0.6063
vn 0.7301 -0.0295 0.6827
vn 0.5894 -0.5338 -0.6063
vn 0.1955 -0.7391 -0.6446
vn -0.0006 -0.0031 -1.0000
vn 0.7301 -0.0295 -0.6827
vn -0.0005 -0.0457 -0.9989
vn -0.0001 -0.0457 -0.9989
vn 0.0105 -0.3036 -0.9527
vn -0.0006 -0.0588 -0.9983
vn 0.5901 -0.3943 -0.7045
vn 0.5167 -0.4304 -0.7401
vn -0.0016 -0.2963 -0.9551
vn 0.0078 -0.2959 -0.9552
vn -0.0003 0.0612 0.9981
vn 0.0152 0.0529 0.9985
vn 0.0288 0.0428 0.9987
vn 0.0007 0.0612 0.9981
vn 0.6369 -0.3531 0.6853
vn 0.6521 -0.1952 0.7325
vn -0.0037 0.1625 0.9867
vn 0.0019 0.1589 0.9873
vn 0.0155 0.0031 -0.9998
vn -0.1203 0.3160 -0.9411
vn 0.7412 0.0974 -0.6641
vn 0.7027 -0.1709 -0.6907
vn 0.7283 -0.1828 0.6604
vn 0.0284 -0.0064 -0.9996
vn -0.4154 0.3543 -0.8378
vn 0.7426 0.0571 0.6673
vn -0.0795 0.2507 0.9648
vn -0.3334 0.2794 0.9004
vn -0.0010 -0.0588 -0.9983
vn -0.0017 -0.2948 -0.9555
vn 0.0005 0.0497 0.9987
vn 0.0018 0.1554 0.9878
vn -0.5248 0.2843 -0.8023
vn 0.6053 0.3317 -0.7235
vn 0.6838 0.1318 -0.7177
vn 0.6729 0.0783 0.7355
vn -0.6978 -0.0207 0.7159
vn -0.7220 -0.0613 0.6891
vn -0.7021 0.0698 -0.7086
vn -0.6925 0.0363 -0.7205
vn 0.7158 0.0210 0.6980
vn 0.5466 0.5035 0.6691
vn -0.5875 0.4722 0.6571
vn 0.7049 0.1473 -0.6938
vn 0.5398 0.7033 -0.4625
vn -0.5781 0.6728 -0.4615
vn 0.7797 0.1214 -0.6142
vn 0.7814 0.0015 0.6240
vn 0.5602 0.2662 0.7844
vn -0.5011 0.2128 0.8388
vn 0.6159 0.5256 0.5868
vn -0.5195 0.4751 0.7102
vn -0.6239 -0.0112 0.7814
vn -0.6186 0.1374 -0.7736
vn 0.6123 0.6889 -0.3878
vn -0.5033 0.6854 -0.5262
g Cube.003_Cube.017_None
usemtl None
s 1
f 3/1/1 1/2/2 2/3/3 4/4/4
f 35/5/5 36/6/6 1/7/2 3/8/1
f 34/9/7 35/5/5 3/8/1 6/10/8
f 6/11/8 3/1/1 4/4/4 5/12/9
f 9/13/10 14/14/7 34/9/7 6/10/8 15/15/11 16/16/12
f 17/17/13 18/18/14 5/12/9 31/19/15 13/20/15 7/21/16
f 31/19/15 32/22/17 12/23/18 13/20/15
f 48/24/19 43/25/20 20/26/21 38/27/22
f 15/28/11 6/11/8 5/12/9 18/18/14
f 32/22/17 33/29/23 8/30/24 12/23/18
f 17/31/13 16/32/12 15/33/11 18/34/14
f 17/31/13 7/35/16 9/36/10 16/32/12
f 37/37/25 22/38/26 26/39/27 39/40/28
f 43/25/20 45/41/29 19/42/30 20/26/21
f 47/43/31 46/44/32 22/38/26 37/37/25
f 40/45/33 24/46/34 28/47/35 42/48/36
f 38/27/22 20/26/21 24/46/34 40/45/33
f 20/26/21 19/42/30 23/49/37 24/46/34
f 25/50/38 40/45/33 42/48/36 29/51/39
f 24/46/34 23/49/37 27/52/40 28/47/35
f 39/40/28 26/39/27 30/53/41 41/54/42
f 45/55/29 47/43/31 37/37/25 19/56/30
f 23/57/37 39/40/28 41/54/42 27/58/40
f 21/59/43 38/27/22 40/45/33 25/50/38
f 19/56/30 37/37/25 39/40/28 23/57/37
f 4/4/4 2/3/3 33/29/23 32/22/17
f 44/60/44 48/24/19 38/27/22 21/59/43
f 5/12/9 4/4/4 32/22/17 31/19/15
f 14/14/7 11/61/45 35/5/5 34/9/7
f 11/61/45 10/62/46 36/6/6 35/5/5
f 29/51/39 42/48/36 64/63/47 61/64/48
f 28/47/35 27/52/40 49/65/49 50/66/50
f 8/30/24 33/29/23 48/24/19 44/60/44
f 1/7/2 36/6/6 47/43/31 45/55/29
f 36/6/6 10/62/46 46/44/32 47/43/31
f 2/3/3 1/2/2 45/41/29 43/25/20
f 33/29/23 2/3/3 43/25/20 48/24/19
f 51/67/51 52/68/52 56/69/53 55/70/54
f 41/54/42 42/48/36 52/68/52 51/67/51
f 42/48/36 28/47/35 50/66/50 52/68/52
f 27/58/40 41/54/42 51/67/51 49/71/49
f 53/72/55 55/70/54 59/73/56 57/74/57
f 49/71/49 51/67/51 55/70/54 53/72/55
f 52/68/52 50/66/50 54/75/58 56/69/53
f 50/66/50 49/65/49 53/76/55 54/75/58
f 58/77/59 57/74/57 59/73/56 60/78/60
f 56/69/53 54/75/58 58/77/59 60/78/60
f 54/75/58 53/76/55 57/79/57 58/77/59
f 55/70/54 56/69/53 60/78/60 59/73/56
f 64/63/47 63/80/61 67/81/62 68/82/63
f 42/48/36 41/54/42 63/80/61 64/63/47
f 30/83/41 29/84/39 61/85/48 62/86/64
f 41/54/42 30/53/41 62/87/64 63/80/61
f 67/81/62 66/88/65 70/89/66 71/90/67
f 62/86/64 61/85/48 65/91/68 66/92/65
f 63/80/61 62/87/64 66/88/65 67/81/62
f 61/64/48 64/63/47 68/82/63 65/93/68
f 72/94/69 71/90/67 70/89/66 69/95/70
f 65/93/68 68/82/63 72/94/69 69/95/70
f 68/82/63 67/81/62 71/90/67 72/94/69
f 66/92/65 65/91/68 69/96/70 70/97/66
f 75/98/71 76/99/72 74/100/73 73/101/74
f 107/102/75 75/103/71 73/104/74 108/105/76
f 106/106/77 78/107/78 75/103/71 107/102/75
f 78/108/78 77/109/79 76/99/72 75/98/71
f 81/110/80 88/111/81 87/112/82 78/107/78 106/106/77 86/113/77
f 89/114/83 79/115/84 85/116/85 103/117/85 77/109/79 90/118/86
f 103/117/85 85/116/85 84/119/87 104/120/88
f 120/121/89 110/122/90 92/123/91 115/124/92
f 87/125/82 90/118/86 77/109/79 78/108/78
f 104/120/88 84/119/87 80/126/93 105/127/94
f 89/128/83 90/129/86 87/130/82 88/131/81
f 89/128/83 88/131/81 81/132/80 79/133/84
f 109/134/95 111/135/96 98/136/97 94/137/98
f 115/124/92 92/123/91 91/138/99 117/139/100
f 119/140/101 109/134/95 94/137/98 118/141/102
f 112/142/103 114/143/104 100/144/105 96/145/106
f 110/122/90 112/142/103 96/145/106 92/123/91
f 92/123/91 96/145/106 95/146/107 91/138/99
f 97/147/108 101/148/109 114/143/104 112/142/103
f 96/145/106 100/144/105 99/149/110 95/146/107
f 111/135/96 113/150/111 102/151/112 98/136/97
f 117/152/100 91/153/99 109/134/95 119/140/101
f 95/154/107 99/155/110 113/150/111 111/135/96
f 93/156/113 97/147/108 112/142/103 110/122/90
f 91/153/99 95/154/107 111/135/96 109/134/95
f 76/99/72 104/120/88 105/127/94 74/100/73
f 116/157/114 93/156/113 110/122/90 120/121/89
f 77/109/79 103/117/85 104/120/88 76/99/72
f 86/113/77 106/106/77 107/102/75 83/158/115
f 83/158/115 107/102/75 108/105/76 82/159/116
f 101/148/109 133/160/117 136/161/118 114/143/104
f 100/144/105 122/162/119 121/163/120 99/149/110
f 80/126/93 116/157/114 120/121/89 105/127/94
f 73/104/74 117/152/100 119/140/101 108/105/76
f 108/105/76 119/140/101 118/141/102 82/159/116
f 74/100/73 115/124/92 117/139/100 73/101/74
f 105/127/94 120/121/89 115/124/92 74/100/73
f 123/164/121 127/165/122 128/166/123 124/167/124
f 113/150/111 123/164/121 124/167/124 114/143/104
f 114/143/104 124/167/124 122/162/119 100/144/105
f 99/155/110 121/168/120 123/164/121 113/150/111
f 125/169/125 129/170/126 131/171/127 127/165/122
f 121/168/120 125/169/125 127/165/122 123/164/121
f 124/167/124 128/166/123 126/172/128 122/162/119
f 122/162/119 126/172/128 125/173/125 121/163/120
f 130/174/129 132/175/130 131/171/127 129/170/126
f 128/166/123 132/175/130 130/174/129 126/172/128
f 126/172/128 130/174/129 129/176/126 125/173/125
f 127/165/122 131/171/127 132/175/130 128/166/123
f 136/161/118 140/177/131 139/178/132 135/179/133
f 114/143/104 136/161/118 135/179/133 113/150/111
f 102/180/112 134/181/134 133/182/117 101/183/109
f 113/150/111 135/179/133 134/184/134 102/151/112
f 139/178/132 143/185/135 142/186/136 138/187/137
f 134/181/134 138/188/137 137/189/138 133/182/117
f 135/179/133 139/178/132 138/187/137 134/184/134
f 133/160/117 137/190/138 140/177/131 136/161/118
f 144/191/139 141/192/140 142/186/136 143/185/135
f 137/190/138 141/192/140 144/191/139 140/177/131
f 140/177/131 144/191/139 143/185/135 139/178/132
f 138/188/137 142/193/136 141/194/140 137/189/138
