# Blender v2.93.4 OBJ File: 'manos jam.blend'
# www.blender.org
mtllib Extension_Brazov2.mtl
o Cube.009_Cube.001
v 0.248002 0.641923 -0.045126
v 0.158867 0.629194 -0.084311
v 0.082007 0.621312 -0.086722
v -0.116770 0.628000 0.150635
v -0.013432 0.628445 0.150121
v -0.329423 0.620854 -0.005328
v -0.333682 0.621650 0.044680
v 0.274281 0.639753 -0.032858
v 0.088549 0.628876 0.153918
v 0.235700 0.643115 0.118187
v -0.217667 0.629869 0.117978
v 0.300018 0.640081 0.004715
v -0.273538 0.629876 0.111868
v 0.325283 0.642690 0.050055
v -0.326495 0.624636 0.094945
v -0.116626 0.618503 -0.087809
v -0.221201 0.621474 -0.082654
v -0.282688 0.621649 -0.024460
v 0.305065 0.639711 0.085459
v -0.013832 0.619333 -0.087492
v 0.244755 -0.016756 0.110749
v 0.314121 0.008502 0.077164
v 0.091064 -0.009898 -0.095016
v -0.004776 -0.011876 -0.095787
v -0.320362 0.038538 -0.015086
v -0.324624 0.017416 0.035578
v 0.257058 0.010714 -0.053421
v 0.167923 -0.002016 -0.092605
v -0.107713 -0.003209 0.142341
v -0.004376 -0.002764 0.141826
v -0.317436 0.042320 0.085188
v 0.283339 0.028775 -0.041759
v 0.097604 -0.008234 0.145800
v -0.208610 -0.001340 0.109683
v 0.309076 0.021516 -0.003959
v -0.264480 0.009624 0.103246
v 0.334342 0.033399 0.041105
v -0.107568 -0.012707 -0.096104
v -0.212144 -0.009736 -0.090949
v 0.089917 -0.015793 0.035859
v -0.005583 -0.015434 0.036599
v 0.243066 -0.018550 0.029680
v -0.273630 0.001399 -0.033083
v -0.260736 -0.007409 0.036434
v -0.203094 -0.018632 0.036911
v -0.103972 -0.017515 0.036747
v 0.272111 0.003005 0.016350
v 0.248002 0.641923 -0.045126
v 0.158867 0.629194 -0.084311
v 0.082007 0.621312 -0.086722
v -0.116770 0.628000 0.150635
v -0.013432 0.628445 0.150121
v -0.329423 0.620854 -0.005328
v -0.333682 0.621650 0.044680
v 0.274281 0.639753 -0.032858
v 0.088549 0.628876 0.153918
v 0.235700 0.643115 0.118187
v -0.217667 0.629869 0.117978
v 0.300018 0.640081 0.004715
v -0.273538 0.629876 0.111868
v 0.325283 0.642690 0.050055
v -0.326495 0.624636 0.094945
v -0.116626 0.618503 -0.087809
v -0.221201 0.621474 -0.082654
v -0.282688 0.621649 -0.024460
v 0.305065 0.639711 0.085459
v -0.013832 0.619333 -0.087492
v 0.244755 -0.016756 0.110749
v 0.314121 0.008502 0.077164
v 0.091064 -0.009898 -0.095016
v -0.004776 -0.011876 -0.095787
v -0.320362 0.038538 -0.015086
v -0.324624 0.017416 0.035578
v 0.257058 0.010714 -0.053421
v 0.167923 -0.002016 -0.092605
v -0.107713 -0.003209 0.142341
v -0.004376 -0.002764 0.141826
v -0.317436 0.042320 0.085188
v 0.283339 0.028775 -0.041759
v 0.097604 -0.008234 0.145800
v -0.208610 -0.001340 0.109683
v 0.309076 0.021516 -0.003959
v -0.264480 0.009624 0.103246
v 0.334342 0.033399 0.041105
v -0.107568 -0.012707 -0.096104
v -0.212144 -0.009736 -0.090949
v 0.089917 -0.015793 0.035859
v -0.005583 -0.015434 0.036599
v 0.243066 -0.018550 0.029680
v -0.273630 0.001399 -0.033083
v -0.260736 -0.007409 0.036434
v -0.203094 -0.018632 0.036911
v -0.103972 -0.017515 0.036747
v 0.272111 0.003005 0.016350
vt 0.416956 0.712095
vt 0.375000 0.750000
vt 0.375000 0.750000
vt 0.416956 0.712095
vt 0.375000 0.416667
vt 0.375000 0.458333
vt 0.375000 0.458333
vt 0.375000 0.416667
vt 0.375000 0.125000
vt 0.375000 0.250000
vt 0.375000 0.250000
vt 0.375000 0.125000
vt 0.375000 0.500000
vt 0.416956 0.537905
vt 0.416956 0.537905
vt 0.375000 0.500000
vt 0.375000 0.833333
vt 0.375000 0.875000
vt 0.375000 0.875000
vt 0.375000 0.833333
vt 0.375000 0.000000
vt 0.375000 0.000000
vt 0.449074 0.541667
vt 0.449074 0.541667
vt 0.375000 0.791667
vt 0.375000 0.791667
vt 0.375000 0.916667
vt 0.375000 0.916667
vt 0.424769 0.625000
vt 0.424769 0.625000
vt 0.375000 0.958333
vt 0.375000 0.958333
vt 0.449074 0.708333
vt 0.449074 0.708333
vt 0.375000 1.000000
vt 0.375000 1.000000
vt 0.375000 0.333333
vt 0.375000 0.375000
vt 0.375000 0.375000
vt 0.375000 0.333333
vt 0.291667 0.500000
vt 0.333333 0.500000
vt 0.332176 0.625000
vt 0.291667 0.625000
vt 0.365162 0.625000
vt 0.333333 0.750000
vt 0.291667 0.750000
vt 0.125000 0.500000
vt 0.166667 0.500000
vt 0.166667 0.625000
vt 0.125000 0.625000
vt 0.208333 0.500000
vt 0.208333 0.625000
vt 0.208333 0.750000
vt 0.166667 0.750000
vt 0.125000 0.750000
vt 0.250000 0.500000
vt 0.250000 0.625000
vt 0.250000 0.750000
vt 0.387442 0.625000
vt 0.375000 0.291667
vt 0.375000 0.291667
vt 0.375000 0.458333
vt 0.375000 0.416667
vt 0.375000 0.375000
vt 0.375000 0.333333
vt 0.375000 0.291667
vt 0.375000 0.250000
vt 0.375000 0.125000
vt 0.375000 0.000000
vt 0.375000 0.958333
vt 0.375000 0.916667
vt 0.375000 0.875000
vt 0.375000 0.833333
vt 0.375000 0.791667
vt 0.375000 0.750000
vt 0.416956 0.712095
vt 0.449074 0.708333
vt 0.424769 0.625000
vt 0.449074 0.541667
vt 0.416956 0.537905
vt 0.375000 0.500000
vt 0.375000 0.750000
vt 0.416956 0.712095
vt 0.375000 0.458333
vt 0.375000 0.416667
vt 0.375000 0.250000
vt 0.375000 0.125000
vt 0.416956 0.537905
vt 0.375000 0.500000
vt 0.375000 0.875000
vt 0.375000 0.833333
vt 0.375000 0.000000
vt 0.449074 0.541667
vt 0.375000 0.791667
vt 0.375000 0.916667
vt 0.424769 0.625000
vt 0.375000 0.958333
vt 0.449074 0.708333
vt 0.375000 1.000000
vt 0.375000 1.000000
vt 0.375000 0.375000
vt 0.375000 0.333333
vt 0.291667 0.500000
vt 0.333333 0.500000
vt 0.332176 0.625000
vt 0.291667 0.625000
vt 0.365162 0.625000
vt 0.333333 0.750000
vt 0.291667 0.750000
vt 0.125000 0.500000
vt 0.166667 0.500000
vt 0.166667 0.625000
vt 0.125000 0.625000
vt 0.208333 0.500000
vt 0.208333 0.625000
vt 0.208333 0.750000
vt 0.166667 0.750000
vt 0.125000 0.750000
vt 0.250000 0.500000
vt 0.250000 0.625000
vt 0.250000 0.750000
vt 0.387442 0.625000
vt 0.375000 0.291667
vn 0.6500 0.0477 0.7584
vn 0.3224 0.0146 0.9465
vn 0.3206 -0.7015 0.6365
vn 0.6908 -0.5620 0.4548
vn 0.0184 -0.0147 -0.9997
vn 0.0383 -0.0109 -0.9992
vn 0.0228 -0.6856 -0.7276
vn 0.0118 -0.6911 -0.7226
vn -0.9991 -0.0297 0.0293
vn -0.7767 -0.0242 -0.6294
vn -0.7774 -0.3072 -0.5489
vn -0.8101 -0.5835 0.0570
vn 0.2534 -0.0001 -0.9674
vn 0.4188 0.0018 -0.9081
vn 0.4599 -0.5746 -0.6770
vn 0.2017 -0.6088 -0.7673
vn 0.0009 0.0032 1.0000
vn -0.1696 -0.0063 0.9855
vn -0.1085 -0.6303 0.7687
vn -0.0178 -0.6695 0.7426
vn -0.7226 0.0007 0.6913
vn -0.7358 -0.3150 0.5995
vn 0.6002 0.0490 -0.7984
vn 0.6374 -0.3522 -0.6854
vn 0.1226 0.0124 0.9924
vn 0.0542 -0.6572 0.7517
vn -0.2571 -0.0160 0.9662
vn -0.2056 -0.6701 0.7132
vn 0.8536 0.0335 -0.5198
vn 0.7435 -0.5192 -0.4215
vn -0.2066 0.0017 0.9784
vn -0.3196 -0.5833 0.7467
vn 0.9987 0.0508 0.0006
vn 0.9384 -0.3437 -0.0365
vn -0.3834 -0.0281 -0.9231
vn -0.0301 -0.0171 -0.9994
vn -0.0144 -0.6860 -0.7274
vn -0.3247 -0.6191 -0.7151
vn -0.0084 -1.0000 0.0051
vn 0.0013 -0.9992 0.0389
vn 0.2092 -0.9728 -0.0994
vn -0.5475 -0.6686 -0.5032
vn -0.3395 -0.9374 0.0780
vn -0.1103 -0.9914 0.0697
vn -0.0034 -0.9985 0.0541
vn 0.4093 -0.8912 -0.1957
vn -0.5786 -0.0648 -0.8131
vn 0.0067 0.7051 -0.7091
vn 0.0072 0.7156 -0.6985
vn -0.0050 0.6767 -0.7362
vn -0.2818 0.6496 -0.7062
vn -0.4087 0.5801 -0.7046
vn -0.6328 0.6305 -0.4494
vn -0.7440 0.6681 -0.0119
vn -0.5856 0.6047 0.5399
vn -0.1552 0.6983 0.6988
vn -0.1221 0.6855 0.7178
vn -0.1190 0.6759 0.7273
vn -0.0050 0.7089 0.7053
vn 0.0920 0.6772 0.7300
vn 0.2533 0.7090 0.6581
vn 0.5617 0.6549 0.5055
vn 0.7600 0.6474 -0.0568
vn 0.5809 0.6997 -0.4159
vn 0.4117 0.6554 -0.6333
vn 0.2520 0.7245 -0.6416
vn 0.1457 0.6834 -0.7154
g Cube.009_Cube.001_Cube.009_Cube.001_Material.002
usemtl Material.002
s 1
f 19/1/1 10/2/2 21/3/3 22/4/4
f 20/5/5 3/6/6 23/7/7 24/8/8
f 7/9/9 6/10/10 25/11/11 26/12/12
f 2/13/13 1/14/14 27/15/15 28/16/16
f 3/6/6 2/13/13 28/16/16 23/7/7
f 5/17/17 4/18/18 29/19/19 30/20/20
f 15/21/21 7/9/9 26/12/12 31/22/22
f 1/14/14 8/23/23 32/24/24 27/15/15
f 10/2/2 9/25/25 33/26/26 21/3/3
f 4/18/18 11/27/27 34/28/28 29/19/19
f 8/23/23 12/29/29 35/30/30 32/24/24
f 9/25/25 5/17/17 30/20/20 33/26/26
f 11/27/27 13/31/31 36/32/32 34/28/28
f 12/29/29 14/33/33 37/34/34 35/30/30
f 13/31/31 15/35/21 31/36/22 36/32/32
f 17/37/35 16/38/36 38/39/37 39/40/38
f 24/41/8 23/42/7 40/43/39 41/44/40
f 23/42/7 28/16/16 42/45/41 40/43/39
f 40/43/39 42/45/41 21/3/3 33/46/26
f 41/44/40 40/43/39 33/46/26 30/47/20
f 25/48/11 43/49/42 44/50/43 26/51/12
f 43/49/42 39/52/38 45/53/44 44/50/43
f 44/50/43 45/53/44 34/54/28 36/55/32
f 26/51/12 44/50/43 36/55/32 31/56/22
f 39/52/38 38/57/37 46/58/45 45/53/44
f 38/57/37 24/41/8 41/44/40 46/58/45
f 46/58/45 41/44/40 30/47/20 29/59/19
f 45/53/44 46/58/45 29/59/19 34/54/28
f 21/3/3 42/45/41 47/60/46 22/4/4
f 42/45/41 28/16/16 27/15/15 47/60/46
f 47/60/46 27/15/15 32/24/24 35/30/30
f 22/4/4 47/60/46 35/30/30 37/34/34
f 18/61/47 17/37/35 39/40/38 43/62/42
f 16/38/36 20/5/5 24/8/8 38/39/37
f 14/33/33 19/1/1 22/4/4 37/34/34
f 6/10/10 18/61/47 43/62/42 25/11/11
f 50/63/48 67/64/49 63/65/50 64/66/51 65/67/52 53/68/53 54/69/54 62/70/55 60/71/56 58/72/57 51/73/58 52/74/59 56/75/60 57/76/61 66/77/62 61/78/63 59/79/64 55/80/65 48/81/66 49/82/67
f 66/77/62 57/76/61 68/83/3 69/84/4
f 67/64/49 50/63/48 70/85/7 71/86/8
f 54/69/54 53/68/53 72/87/11 73/88/12
f 49/82/67 48/81/66 74/89/15 75/90/16
f 50/63/48 49/82/67 75/90/16 70/85/7
f 52/74/59 51/73/58 76/91/19 77/92/20
f 62/70/55 54/69/54 73/88/12 78/93/22
f 48/81/66 55/80/65 79/94/24 74/89/15
f 57/76/61 56/75/60 80/95/26 68/83/3
f 51/73/58 58/72/57 81/96/28 76/91/19
f 55/80/65 59/79/64 82/97/30 79/94/24
f 56/75/60 52/74/59 77/92/20 80/95/26
f 58/72/57 60/71/56 83/98/32 81/96/28
f 59/79/64 61/78/63 84/99/34 82/97/30
f 60/71/56 62/100/55 78/101/22 83/98/32
f 64/66/51 63/65/50 85/102/37 86/103/38
f 71/104/8 70/105/7 87/106/39 88/107/40
f 70/105/7 75/90/16 89/108/41 87/106/39
f 87/106/39 89/108/41 68/83/3 80/109/26
f 88/107/40 87/106/39 80/109/26 77/110/20
f 72/111/11 90/112/42 91/113/43 73/114/12
f 90/112/42 86/115/38 92/116/44 91/113/43
f 91/113/43 92/116/44 81/117/28 83/118/32
f 73/114/12 91/113/43 83/118/32 78/119/22
f 86/115/38 85/120/37 93/121/45 92/116/44
f 85/120/37 71/104/8 88/107/40 93/121/45
f 93/121/45 88/107/40 77/110/20 76/122/19
f 92/116/44 93/121/45 76/122/19 81/117/28
f 68/83/3 89/108/41 94/123/46 69/84/4
f 89/108/41 75/90/16 74/89/15 94/123/46
f 94/123/46 74/89/15 79/94/24 82/97/30
f 69/84/4 94/123/46 82/97/30 84/99/34
f 65/67/52 64/66/51 86/103/38 90/124/42
f 63/65/50 67/64/49 71/86/8 85/102/37
f 61/78/63 66/77/62 69/84/4 84/99/34
f 53/68/53 65/67/52 90/124/42 72/87/11
