# Blender v2.93.4 OBJ File: 'manos jam.blend'
# www.blender.org
mtllib Cichillo caro.mtl
o CUCHILLO_CARO_Cube.009
v 0.018800 0.027611 0.041541
v 0.035715 0.027611 -0.557432
v 0.018800 -0.027611 0.041541
v 0.035715 -0.027611 -0.557432
v 0.128666 0.027611 0.041541
v 0.113673 0.027611 -0.557432
v 0.128666 -0.027611 0.041541
v 0.113673 -0.027611 -0.557432
v 0.015289 0.028830 0.375823
v 0.015289 -0.028830 0.375823
v 0.132859 0.028830 0.375823
v 0.132859 -0.028830 0.375823
v 0.013080 0.027611 -0.625335
v 0.013080 -0.027611 -0.625335
v 0.113673 0.027611 -0.625335
v 0.113673 -0.027611 -0.625335
v -0.037847 0.000000 -0.653628
v 0.113673 0.027611 -0.653628
v 0.113673 -0.027611 -0.653628
v -0.037847 0.000000 -0.964852
v 0.113673 0.027611 -0.964852
v 0.113673 -0.027611 -0.964852
v 0.058010 0.000000 -1.367553
v 0.113673 0.000000 -1.386318
v 0.113673 0.027611 -1.100659
v 0.113673 0.027611 -1.236465
v -0.003896 0.000000 -1.236465
v -0.029359 0.000000 -1.100659
v 0.113673 -0.027611 -1.236465
v 0.113673 -0.027611 -1.100659
v 0.113673 -0.027611 -0.757370
v 0.113673 -0.027611 -0.861111
v 0.113673 0.027611 -0.861111
v 0.113673 0.027611 -0.757370
v -0.037847 0.000000 -0.757370
v -0.037847 0.000000 -0.861111
v 0.107317 -0.027611 0.041541
v 0.098524 -0.027611 -0.557432
v 0.107317 0.027611 0.041541
v 0.098524 0.027611 -0.557432
v 0.105621 -0.028830 0.436364
v 0.105621 0.028830 0.436364
v 0.094125 -0.027611 -0.625335
v 0.094125 0.027611 -0.625335
v 0.084229 -0.026517 -0.653628
v 0.084229 0.026517 -0.653628
v 0.084229 -0.026517 -0.964852
v 0.084229 0.026517 -0.964852
v 0.104022 0.000000 -1.386318
v 0.085878 -0.026517 -1.100659
v 0.090827 -0.026517 -1.236465
v 0.085878 0.026517 -1.100659
v 0.090827 0.026517 -1.236465
v 0.084229 -0.026517 -0.757370
v 0.084229 -0.026517 -0.861111
v 0.084229 0.026517 -0.757370
v 0.084229 0.026517 -0.861111
v 0.063059 -0.027611 0.041541
v 0.067119 0.027611 -0.557432
v 0.063716 -0.028830 0.436364
v 0.053603 0.027611 -0.625335
v 0.023191 0.020065 -0.653628
v 0.023191 0.020065 -0.964852
v 0.084015 0.000000 -1.380657
v 0.028260 0.020065 -1.100659
v 0.043465 0.020065 -1.236465
v 0.023191 0.020065 -0.757370
v 0.023191 0.020065 -0.861111
v 0.067119 -0.027611 -0.557432
v 0.063059 0.027611 0.041541
v 0.063716 0.028830 0.436364
v 0.053603 -0.027611 -0.625335
v 0.023191 -0.020065 -0.653628
v 0.023191 -0.020065 -0.964852
v 0.028260 -0.020065 -1.100659
v 0.043465 -0.020065 -1.236465
v 0.023191 -0.020065 -0.757370
v 0.023191 -0.020065 -0.861111
v -0.003000 -0.000000 0.041541
v 0.020246 0.000000 -0.557432
v 0.137723 -0.000000 0.041541
v 0.120099 0.000000 -0.557432
v -0.007751 -0.000000 0.375823
v 0.142839 -0.000000 0.375823
v -0.008746 0.000000 -0.625335
v 0.120099 0.000000 -0.625335
v 0.120099 0.000000 -0.653628
v 0.120099 0.000000 -0.964852
v 0.120099 0.000000 -1.380657
v 0.120099 0.000000 -1.100659
v 0.120099 0.000000 -1.236465
v 0.120099 0.000000 -0.757370
v 0.120099 0.000000 -0.861111
v 0.108774 -0.000000 0.436364
v 0.055100 -0.000000 0.436364
v 0.105288 0.028221 0.188017
v 0.105288 -0.028221 0.188017
v 0.045294 0.028221 0.188017
v 0.045294 -0.028221 0.188017
v 0.093630 -0.028221 0.205636
v 0.093630 0.028221 0.205636
v 0.069462 -0.028221 0.205636
v 0.069462 0.028221 0.205636
v 0.033465 -0.000000 0.188017
v 0.110309 -0.000000 0.188017
v 0.033947 0.027611 -0.049980
v 0.033947 -0.027611 -0.049980
v 0.115240 -0.027611 -0.049980
v 0.115240 0.027611 -0.049980
v 0.099443 0.027611 -0.049980
v 0.099443 -0.027611 -0.049980
v 0.066695 -0.027611 -0.049980
v 0.066695 0.027611 -0.049980
v 0.121941 0.000000 -0.049980
v 0.017817 0.000000 -0.049980
v 0.035621 0.027611 -0.530466
v 0.035621 -0.027611 -0.530466
v 0.113756 -0.027611 -0.530466
v 0.113756 0.027611 -0.530466
v 0.098573 0.027611 -0.530466
v 0.098573 -0.027611 -0.530466
v 0.067097 -0.027611 -0.530466
v 0.067097 0.027611 -0.530466
v 0.120197 0.000000 -0.530466
v 0.020117 0.000000 -0.530466
v 0.035484 -0.027611 -0.491243
v 0.113877 -0.027611 -0.491243
v 0.113877 0.027611 -0.491243
v 0.098644 0.027611 -0.491243
v 0.098644 -0.027611 -0.491243
v 0.067064 -0.027611 -0.491243
v 0.067064 0.027611 -0.491243
v 0.120340 0.000000 -0.491243
v 0.019929 0.000000 -0.491243
v 0.035484 0.027611 -0.491243
v 0.035394 -0.027611 -0.465279
v 0.113957 -0.027611 -0.465279
v 0.113957 0.027611 -0.465279
v 0.098691 0.027611 -0.465279
v 0.098691 -0.027611 -0.465279
v 0.067042 -0.027611 -0.465279
v 0.067042 0.027611 -0.465279
v 0.120434 0.000000 -0.465279
v 0.019805 0.000000 -0.465279
v 0.035394 0.027611 -0.465279
v 0.028288 0.032499 -0.531013
v 0.028399 0.032499 -0.558741
v 0.010192 0.000000 -0.558741
v 0.028399 -0.032499 -0.558741
v 0.102327 -0.032499 -0.558741
v 0.120158 -0.032499 -0.558741
v 0.127722 0.000000 -0.558741
v 0.120158 0.032499 -0.558741
v 0.065363 0.032499 -0.558741
v 0.065363 -0.032499 -0.558741
v 0.102327 0.032499 -0.558741
v 0.028288 -0.032499 -0.531013
v 0.120256 -0.032499 -0.531013
v 0.120256 0.032499 -0.531013
v 0.102385 0.032499 -0.531013
v 0.102385 -0.032499 -0.531013
v 0.065336 -0.032499 -0.531013
v 0.065336 0.032499 -0.531013
v 0.127837 0.000000 -0.531013
v 0.010040 0.000000 -0.531013
v 0.028021 0.032499 -0.463983
v 0.028127 0.032499 -0.490681
v 0.009819 0.000000 -0.490681
v 0.028127 -0.032499 -0.490681
v 0.102468 -0.032499 -0.490681
v 0.120399 -0.032499 -0.490681
v 0.128005 0.000000 -0.490681
v 0.120399 0.032499 -0.490681
v 0.065298 0.032499 -0.490681
v 0.102468 0.032499 -0.490681
v 0.065298 -0.032499 -0.490681
v 0.028021 -0.032499 -0.463983
v 0.120493 -0.032499 -0.463983
v 0.120493 0.032499 -0.463983
v 0.102523 0.032499 -0.463983
v 0.102523 -0.032499 -0.463983
v 0.065272 -0.032499 -0.463983
v 0.065272 0.032499 -0.463983
v 0.128116 0.000000 -0.463983
v 0.009672 0.000000 -0.463983
vt 0.375000 0.625000
vt 0.375000 0.750000
vt 0.375000 0.750000
vt 0.375000 0.625000
vt 0.625000 0.625000
vt 0.625000 0.500000
vt 0.625000 0.500000
vt 0.625000 0.625000
vt 0.326419 0.625000
vt 0.326419 0.750000
vt 0.375000 0.899290
vt 0.375000 1.000000
vt 0.375000 1.000000
vt 0.375000 0.899290
vt 0.375000 0.451419
vt 0.375000 0.500000
vt 0.375000 0.500000
vt 0.375000 0.451419
vt 0.375000 0.125000
vt 0.375000 0.250000
vt 0.375000 0.250000
vt 0.375000 0.125000
vt 0.625000 0.500000
vt 0.625000 0.625000
vt 0.625000 0.125000
vt 0.625000 0.000000
vt 0.625000 0.000000
vt 0.625000 0.125000
vt 0.625000 0.798581
vt 0.625000 0.750000
vt 0.625000 0.750000
vt 0.625000 0.798581
vt 0.625000 0.350710
vt 0.625000 0.250000
vt 0.625000 0.250000
vt 0.625000 0.350710
vt 0.625000 0.625000
vt 0.625000 0.500000
vt 0.625000 0.500000
vt 0.625000 0.625000
vt 0.625000 0.250000
vt 0.625000 0.750000
vt 0.625000 0.798581
vt 0.625000 0.350710
vt 0.625000 0.798581
vt 0.625000 0.750000
vt 0.625000 0.750000
vt 0.625000 0.798581
vt 0.625000 0.798581
vt 0.625000 0.750000
vt 0.625000 0.750000
vt 0.625000 0.798581
vt 0.625000 0.350710
vt 0.625000 0.250000
vt 0.625000 0.250000
vt 0.625000 0.350710
vt 0.625000 0.350710
vt 0.625000 0.250000
vt 0.625000 0.250000
vt 0.625000 0.350710
vt 0.625000 0.625000
vt 0.625000 0.500000
vt 0.625000 0.500000
vt 0.625000 0.625000
vt 0.625000 0.500000
vt 0.625000 0.625000
vt 0.625000 0.250000
vt 0.625000 0.350710
vt 0.625000 0.750000
vt 0.625000 0.798581
vt 0.625000 0.250000
vt 0.625000 0.350710
vt 0.625000 0.750000
vt 0.625000 0.798581
vt 0.625000 0.500000
vt 0.625000 0.625000
vt 0.625000 0.899290
vt 0.625000 0.899290
vt 0.625000 0.899290
vt 0.625000 0.451419
vt 0.625000 0.451419
vt 0.625000 0.451419
vt 0.625000 0.899290
vt 0.625000 0.899290
vt 0.625000 0.899290
vt 0.625000 0.451419
vt 0.625000 0.451419
vt 0.625000 0.451419
vt 0.625000 0.451419
vt 0.625000 0.899290
vt 0.625000 0.451419
vt 0.625000 0.899290
vt 0.625000 0.451419
vt 0.625000 0.899290
vt 0.375000 0.350710
vt 0.375000 0.350710
vt 0.375000 0.798581
vt 0.375000 0.798581
vt 0.225710 0.625000
vt 0.225710 0.750000
vt 0.125000 0.625000
vt 0.125000 0.750000
vt 0.625000 1.000000
vt 0.625000 1.000000
vt 0.625000 1.000000
vt 0.625000 1.000000
vt 0.625000 1.000000
vt 0.625000 1.000000
vt 0.625000 1.000000
vt 0.625000 1.000000
vt 0.625000 1.000000
vt 0.125000 0.500000
vt 0.225710 0.500000
vt 0.326419 0.500000
vt 0.375000 0.000000
vt 0.375000 0.000000
vt 0.375000 0.500000
vt 0.375000 0.625000
vt 0.375000 0.000000
vt 0.375000 0.125000
vt 0.375000 0.798581
vt 0.375000 0.899290
vt 0.375000 0.250000
vt 0.375000 0.350710
vt 0.375000 0.750000
vt 0.375000 0.451419
vt 0.375000 1.000000
vt 0.440659 0.000000
vt 0.440659 0.125000
vt 0.440659 0.500000
vt 0.440659 0.625000
vt 0.440659 0.798581
vt 0.440659 0.899291
vt 0.440659 0.250000
vt 0.440659 0.350710
vt 0.440659 0.451419
vt 0.440659 0.750000
vt 0.440659 1.000000
vt 0.600955 0.000000
vt 0.615204 0.000000
vt 0.615204 0.125000
vt 0.600955 0.125000
vt 0.600955 0.500000
vt 0.615204 0.500000
vt 0.615204 0.625000
vt 0.600956 0.625000
vt 0.600955 0.798581
vt 0.615204 0.798581
vt 0.615204 0.899290
vt 0.600955 0.899290
vt 0.600955 0.250000
vt 0.615204 0.250000
vt 0.615204 0.350710
vt 0.600956 0.350710
vt 0.615204 0.451419
vt 0.600955 0.451419
vt 0.600955 0.750000
vt 0.615204 0.750000
vt 0.615204 1.000000
vt 0.600956 1.000000
vt 0.591524 0.000000
vt 0.591523 0.125000
vt 0.591524 0.500000
vt 0.591524 0.625000
vt 0.591524 0.798581
vt 0.591524 0.899290
vt 0.591524 0.250000
vt 0.591524 0.350710
vt 0.591524 0.451419
vt 0.591524 0.750000
vt 0.591524 1.000000
vt 0.600955 0.899290
vt 0.600955 0.798581
vt 0.615204 0.000000
vt 0.615204 0.125000
vt 0.625000 0.750000
vt 0.625000 0.625000
vt 0.591524 0.000000
vt 0.591523 0.125000
vt 0.600956 0.350710
vt 0.600955 0.250000
vt 0.600955 0.451419
vt 0.625000 0.500000
vt 0.600955 0.750000
vt 0.625000 0.451419
vt 0.625000 0.798581
vt 0.600956 1.000000
vt 0.615204 0.250000
vt 0.625000 0.125000
vt 0.625000 0.000000
vt 0.591524 0.250000
vt 0.600956 0.625000
vt 0.625000 0.350710
vt 0.625000 0.899290
vt 0.615204 0.451419
vt 0.615204 0.500000
vt 0.591524 0.451419
vt 0.591524 0.500000
vt 0.600955 0.500000
vt 0.625000 0.250000
vt 0.615204 0.625000
vt 0.615204 0.750000
vt 0.615204 0.899290
vt 0.625000 1.000000
vt 0.615204 1.000000
vt 0.615204 0.798581
vt 0.615204 0.350710
vt 0.600955 0.125000
vt 0.591524 0.625000
vt 0.591524 0.750000
vt 0.591524 0.899290
vt 0.591524 1.000000
vt 0.591524 0.798581
vt 0.591524 0.350710
vt 0.600955 0.000000
vn 1.0000 0.0000 0.0064
vn 0.5732 0.8194 0.0007
vn 0.6691 0.7348 0.1109
vn 0.9895 0.0000 0.1446
vn 0.5697 0.0000 -0.8218
vn 0.2560 -0.2587 -0.9314
vn 0.6175 -0.7866 -0.0049
vn 1.0000 0.0000 0.0000
vn 0.5456 0.0000 0.8380
vn 0.3756 0.6478 0.6627
vn 0.0011 1.0000 -0.0031
vn -0.4503 0.8928 0.0025
vn -0.5634 0.8021 0.1978
vn -0.2369 0.6918 0.6821
vn -0.0021 -1.0000 -0.0030
vn 0.5732 -0.8194 0.0007
vn 0.6691 -0.7348 0.1109
vn 0.3756 -0.6478 0.6627
vn -0.9999 0.0000 0.0122
vn -0.4503 -0.8928 0.0025
vn -0.5634 -0.8021 0.1978
vn -0.9734 0.0000 0.2291
vn 0.6101 -0.7923 -0.0050
vn -0.5945 0.0000 -0.8041
vn -0.2156 0.4453 -0.8690
vn -0.4501 0.8923 0.0359
vn -0.8486 0.0000 0.5290
vn 0.0000 0.6088 -0.7933
vn 0.2560 0.2587 -0.9314
vn 0.6175 0.7866 -0.0049
vn -0.0192 0.9995 -0.0256
vn 0.0000 -0.6088 -0.7933
vn -0.2156 -0.4453 -0.8690
vn -0.4501 -0.8923 0.0359
vn -0.0466 -0.9958 -0.0792
vn 0.6071 -0.7946 0.0000
vn 0.6069 -0.7947 -0.0001
vn -0.9832 0.0000 0.1822
vn 0.6101 0.7923 -0.0050
vn -0.0592 0.9976 -0.0355
vn -0.1848 -0.9735 -0.1347
vn -0.0774 0.9928 -0.0910
vn 0.5510 0.8316 -0.0690
vn 0.9187 0.0000 -0.3949
vn -0.3439 0.0000 -0.9390
vn -0.0712 0.9974 0.0000
vn 0.6071 0.7946 0.0000
vn 0.6069 0.7947 -0.0001
vn -0.0723 0.9974 -0.0007
vn -0.2099 -0.9777 0.0000
vn -1.0000 0.0000 0.0000
vn -0.9997 0.0000 -0.0248
vn -0.2139 -0.9768 -0.0048
vn -0.2235 -0.9692 -0.1028
vn -0.9547 0.0000 -0.2974
vn -0.8538 0.0000 -0.5206
vn -0.6734 0.0000 -0.7392
vn 0.9998 0.0000 -0.0207
vn 0.5510 -0.8316 -0.0690
vn 0.9991 0.0000 -0.0428
vn 0.6057 -0.7956 -0.0003
vn -0.9951 0.0000 -0.0981
vn -0.2311 -0.9727 -0.0211
vn 0.6057 0.7956 -0.0003
vn -0.0782 0.9969 -0.0032
vn -0.2099 0.9777 0.0000
vn -0.1848 0.9735 -0.1347
vn -0.0712 -0.9974 0.0000
vn -0.0592 -0.9976 -0.0355
vn -0.2311 0.9727 -0.0211
vn -0.2235 0.9692 -0.1028
vn -0.2139 0.9768 -0.0048
vn -0.0782 -0.9969 -0.0032
vn -0.0774 -0.9928 -0.0910
vn -0.0723 -0.9974 -0.0007
vn -0.0192 -0.9995 -0.0256
vn -0.0466 0.9958 -0.0792
vn 0.0011 -1.0000 -0.0031
vn -0.2369 -0.6918 0.6821
vn -0.0021 1.0000 -0.0030
vn -0.4519 0.0000 0.8920
vn 0.6438 -0.7652 0.0036
vn 1.0000 0.0000 0.0069
vn -0.5180 0.8553 0.0056
vn -0.9999 0.0000 0.0113
vn -0.0006 1.0000 -0.0020
vn 0.0002 1.0000 -0.0019
vn -0.5180 -0.8553 0.0056
vn 0.0002 -1.0000 -0.0019
vn 0.6438 0.7652 0.0036
vn -0.0006 -1.0000 -0.0020
vn -0.4634 0.8850 -0.0438
vn -0.9950 0.0000 -0.1001
vn 0.5917 -0.8048 -0.0471
vn 0.9967 0.0000 -0.0813
vn 0.0000 1.0000 0.0000
vn -0.4634 -0.8850 -0.0438
vn 0.0000 -1.0000 0.0000
vn 0.5917 0.8048 -0.0471
vn -0.2823 0.5177 -0.8076
vn -0.2819 0.5181 0.8075
vn -0.5823 0.0000 0.8130
vn -0.5796 0.0000 -0.8149
vn 0.3180 -0.4260 -0.8470
vn 0.3177 -0.4263 0.8469
vn 0.6799 0.0000 0.7333
vn 0.6779 0.0000 -0.7351
vn 0.0000 0.7463 -0.6655
vn 0.0000 0.7454 0.6666
vn -0.2823 -0.5177 -0.8076
vn -0.2819 -0.5181 0.8075
vn 0.0000 -0.7454 0.6666
vn 0.0000 -0.7463 -0.6655
vn 0.3180 0.4260 -0.8470
vn 0.3177 0.4263 0.8469
vn -0.2550 0.3511 0.9009
vn -0.4727 0.0000 0.8812
vn 0.2567 -0.2624 0.9302
vn 0.5714 0.0000 0.8206
vn 0.0000 0.6099 0.7925
vn -0.2550 -0.3511 0.9009
vn 0.0000 -0.6099 0.7925
vn 0.2567 0.2624 0.9302
vn -0.4126 0.6952 0.5886
vn -0.8047 0.0000 0.5937
vn 0.4740 0.6093 -0.6356
vn 0.6996 0.0000 -0.7145
vn -0.3741 0.6588 0.6526
vn -0.7629 0.0000 0.6465
vn -0.4099 -0.6955 -0.5901
vn 0.4740 -0.6093 -0.6356
vn 0.5112 0.6420 -0.5714
vn -0.4099 0.6955 -0.5901
vn -0.4126 -0.6952 0.5886
vn -0.7590 0.0000 -0.6511
vn -0.3723 0.6578 -0.6547
vn -0.3741 -0.6588 0.6526
vn 0.7713 0.0000 -0.6365
vn 0.5134 -0.6414 0.5700
vn 0.4762 -0.6099 0.6334
vn 0.5112 -0.6420 -0.5714
vn -0.3723 -0.6578 -0.6547
vn 0.7732 0.0000 0.6342
vn 0.5134 0.6414 0.5700
vn -0.8024 0.0000 -0.5968
vn 0.7036 0.0000 0.7105
vn 0.4762 0.6099 0.6334
g CUCHILLO_CARO_Cube.009_Material_separacion_1
usemtl Material_separacion_1
s 1
f 105/1/1 96/2/2 11/3/3 84/4/4
f 82/5/5 8/6/6 16/7/7 86/8/8
f 94/9/9 84/4/4 11/3/3 42/10/10
f 103/11/11 98/12/12 9/13/13 71/14/14
f 100/15/15 97/16/16 12/17/17 41/18/18
f 104/19/19 99/20/20 10/21/21 83/22/22
f 86/8/8 16/7/7 19/23/23 87/24/8
f 80/25/24 2/26/25 13/27/26 85/28/27
f 40/29/28 6/30/29 15/31/30 44/32/31
f 69/33/32 4/34/33 14/35/34 72/36/35
f 93/37/8 32/38/36 22/39/37 88/40/8
f 14/35/34 85/28/27 13/27/26 17/41/38
f 44/32/31 15/31/30 18/42/39 46/43/40
f 72/36/35 14/35/34 17/41/38 73/44/41
f 53/45/42 26/46/43 24/47/44 49/48/45
f 57/49/46 33/50/47 21/51/48 48/52/49
f 78/53/50 36/54/51 20/55/52 74/56/53
f 76/57/54 27/58/55 23/59/56 64/60/57
f 91/61/58 29/62/59 24/63/44 89/64/60
f 88/40/8 22/39/37 30/65/61 90/66/8
f 90/66/8 30/65/61 29/62/59 91/61/58
f 74/56/53 20/55/52 28/67/62 75/68/63
f 75/68/63 28/67/62 27/58/55 76/57/54
f 48/52/49 21/51/48 25/69/64 52/70/65
f 52/70/65 25/69/64 26/46/43 53/45/42
f 73/44/41 17/41/38 35/71/51 77/72/50
f 77/72/50 35/71/51 36/54/51 78/53/50
f 46/43/40 18/42/39 34/73/47 56/74/46
f 56/74/46 34/73/47 33/50/47 57/49/46
f 87/24/8 19/23/23 31/75/36 92/76/8
f 92/76/8 31/75/36 32/38/36 93/37/8
f 67/77/66 56/74/46 57/49/46 68/78/66
f 62/79/67 46/43/40 56/74/46 67/77/66
f 31/75/36 54/80/68 55/81/68 32/38/36
f 19/23/23 45/82/69 54/80/68 31/75/36
f 65/83/70 52/70/65 53/45/42 66/84/71
f 63/85/72 48/52/49 52/70/65 65/83/70
f 30/65/61 50/86/73 51/87/74 29/62/59
f 22/39/37 47/88/75 50/86/73 30/65/61
f 29/62/59 51/87/74 49/89/45 24/63/44
f 32/38/36 55/81/68 47/88/75 22/39/37
f 68/78/66 57/49/46 48/52/49 63/85/72
f 66/84/71 53/45/42 49/48/45 64/90/57
f 16/7/7 43/91/76 45/82/69 19/23/23
f 61/92/77 44/32/31 46/43/40 62/79/67
f 8/6/6 38/93/32 43/91/76 16/7/7
f 59/94/28 40/29/28 44/32/31 61/92/77
f 102/95/78 100/15/15 41/18/18 60/96/79
f 96/2/2 101/97/80 42/98/10 11/3/3
f 95/99/81 94/9/9 42/10/10 71/100/14
f 83/101/22 95/99/81 71/100/14 9/102/13
f 99/20/20 102/95/78 60/96/79 10/21/21
f 2/103/25 59/94/28 61/92/77 13/104/26
f 13/104/26 61/92/77 62/79/67 17/105/38
f 27/106/55 66/84/71 64/90/57 23/107/56
f 36/108/51 68/78/66 63/85/72 20/109/52
f 20/109/52 63/85/72 65/83/70 28/110/62
f 28/110/62 65/83/70 66/84/71 27/106/55
f 17/105/38 62/79/67 67/77/66 35/111/51
f 35/111/51 67/77/66 68/78/66 36/108/51
f 54/80/68 77/72/50 78/53/50 55/81/68
f 45/82/69 73/44/41 77/72/50 54/80/68
f 50/86/73 75/68/63 76/57/54 51/87/74
f 47/88/75 74/56/53 75/68/63 50/86/73
f 51/87/74 76/57/54 64/60/57 49/89/45
f 55/81/68 78/53/50 74/56/53 47/88/75
f 43/91/76 72/36/35 73/44/41 45/82/69
f 38/93/32 69/33/32 72/36/35 43/91/76
f 101/97/80 103/11/11 71/14/14 42/98/10
f 10/112/21 60/113/79 95/99/81 83/101/22
f 60/113/79 41/114/18 94/9/9 95/99/81
f 34/73/47 92/76/8 93/37/8 33/50/47
f 18/42/39 87/24/8 92/76/8 34/73/47
f 25/69/64 90/66/8 91/61/58 26/46/43
f 21/51/48 88/40/8 90/66/8 25/69/64
f 26/46/43 91/61/58 89/64/60 24/47/44
f 33/50/47 93/37/8 88/40/8 21/51/48
f 4/34/33 80/25/24 85/28/27 14/35/34
f 15/31/30 86/8/8 87/24/8 18/42/39
f 98/115/12 104/19/19 83/22/22 9/116/13
f 41/114/18 12/17/17 84/4/4 94/9/9
f 6/30/29 82/5/5 86/8/8 15/31/30
f 97/16/16 105/1/1 84/4/4 12/17/17
f 7/117/82 81/118/83 105/1/1 97/16/16
f 1/119/84 79/120/85 104/19/19 98/115/12
f 39/121/86 70/122/87 103/11/11 101/97/80
f 3/123/88 58/124/89 102/95/78 99/20/20
f 5/125/90 39/121/86 101/97/80 96/2/2
f 58/124/89 37/126/91 100/15/15 102/95/78
f 79/120/85 3/123/88 99/20/20 104/19/19
f 37/126/91 7/117/82 97/16/16 100/15/15
f 70/122/87 1/127/84 98/12/12 103/11/11
f 81/118/83 5/125/90 96/2/2 105/1/1
f 1/119/84 106/128/92 115/129/93 79/120/85
f 7/117/82 108/130/94 114/131/95 81/118/83
f 39/121/86 110/132/96 113/133/96 70/122/87
f 3/123/88 107/134/97 112/135/98 58/124/89
f 58/124/89 112/135/98 111/136/98 37/126/91
f 5/125/90 109/137/99 110/132/96 39/121/86
f 70/122/87 113/133/96 106/138/92 1/127/84
f 81/118/83 114/131/95 109/137/99 5/125/90
f 37/126/91 111/136/98 108/130/94 7/117/82
f 79/120/85 115/129/93 107/134/97 3/123/88
f 135/139/100 116/140/101 125/141/102 134/142/103
f 127/143/104 118/144/105 124/145/106 133/146/107
f 129/147/108 120/148/109 123/149/109 132/150/108
f 126/151/110 117/152/111 122/153/112 131/154/113
f 131/154/113 122/153/112 121/155/112 130/156/113
f 128/157/114 119/158/115 120/148/109 129/147/108
f 132/150/108 123/149/109 116/159/101 135/160/100
f 133/146/107 124/145/106 119/158/115 128/157/114
f 130/156/113 121/155/112 118/144/105 127/143/104
f 134/142/103 125/141/102 117/152/111 126/151/110
f 106/128/92 145/161/116 144/162/117 115/129/93
f 108/130/94 137/163/118 143/164/119 114/131/95
f 110/132/96 139/165/120 142/166/120 113/133/96
f 107/134/97 136/167/121 141/168/122 112/135/98
f 112/135/98 141/168/122 140/169/122 111/136/98
f 109/137/99 138/170/123 139/165/120 110/132/96
f 113/133/96 142/166/120 145/171/116 106/138/92
f 114/131/95 143/164/119 138/170/123 109/137/99
f 111/136/98 140/169/122 137/163/118 108/130/94
f 115/129/93 144/162/117 136/167/121 107/134/97
g CUCHILLO_CARO_Cube.009_Material_separacion_2
usemtl Material_separacion_2
f 129/147/108 132/150/108 174/172/108 175/173/108
f 125/141/102 116/140/101 146/174/124 165/175/125
f 82/5/5 6/30/29 153/176/126 152/177/127
f 144/162/117 145/161/116 166/178/128 185/179/129
f 126/151/110 131/154/113 176/180/113 169/181/130
f 131/154/113 130/156/113 170/182/113 176/180/113
f 8/6/6 82/5/5 152/177/127 151/183/131
f 128/157/114 129/147/108 175/173/108 173/184/132
f 38/93/32 8/6/6 151/183/131 150/185/32
f 6/30/29 40/29/28 156/186/28 153/176/126
f 132/150/108 135/160/100 167/187/133 174/172/108
f 117/152/111 125/141/102 165/175/125 157/188/134
f 2/26/25 80/25/24 148/189/135 147/190/136
f 136/167/121 144/162/117 185/179/129 177/191/137
f 133/146/107 128/157/114 173/184/132 172/192/138
f 69/33/32 38/93/32 150/185/32 155/193/32
f 40/29/28 59/94/28 154/194/28 156/186/28
f 118/144/105 121/155/112 161/195/112 158/196/139
f 137/163/118 140/169/122 181/197/122 178/198/140
f 130/156/113 127/143/104 171/199/141 170/182/113
f 165/175/125 148/189/135 149/200/142 157/188/134
f 161/195/112 150/185/32 151/183/131 158/196/139
f 164/201/143 152/177/127 153/176/126 159/202/144
f 163/203/109 154/194/28 147/204/136 146/205/124
f 159/202/144 153/176/126 156/186/28 160/206/109
f 162/207/112 155/193/32 150/185/32 161/195/112
f 157/188/134 149/200/142 155/193/32 162/207/112
f 160/206/109 156/186/28 154/194/28 163/203/109
f 158/196/139 151/183/131 152/177/127 164/201/143
f 146/174/124 147/190/136 148/189/135 165/175/125
f 185/179/129 168/208/145 169/181/130 177/191/137
f 181/197/122 170/182/113 171/199/141 178/198/140
f 184/209/146 172/192/138 173/184/132 179/210/147
f 183/211/120 174/172/108 167/187/133 166/212/128
f 179/210/147 173/184/132 175/173/108 180/213/120
f 182/214/122 176/180/113 170/182/113 181/197/122
f 177/191/137 169/181/130 176/180/113 182/214/122
f 180/213/120 175/173/108 174/172/108 183/211/120
f 178/198/140 171/199/141 172/192/138 184/209/146
f 166/178/128 167/215/133 168/208/145 185/179/129
f 143/164/119 137/163/118 178/198/140 184/209/146
f 124/145/106 118/144/105 158/196/139 164/201/143
f 127/143/104 133/146/107 172/192/138 171/199/141
f 142/166/120 139/165/120 180/213/120 183/211/120
f 123/149/109 120/148/109 160/206/109 163/203/109
f 135/139/100 134/142/103 168/208/145 167/215/133
f 141/168/122 136/167/121 177/191/137 182/214/122
f 59/94/28 2/103/25 147/204/136 154/194/28
f 122/153/112 117/152/111 157/188/134 162/207/112
f 140/169/122 141/168/122 182/214/122 181/197/122
f 121/155/112 122/153/112 162/207/112 161/195/112
f 4/34/33 69/33/32 155/193/32 149/200/142
f 139/165/120 138/170/123 179/210/147 180/213/120
f 120/148/109 119/158/115 159/202/144 160/206/109
f 145/171/116 142/166/120 183/211/120 166/212/128
f 116/159/101 123/149/109 163/203/109 146/205/124
f 134/142/103 126/151/110 169/181/130 168/208/145
f 138/170/123 143/164/119 184/209/146 179/210/147
f 119/158/115 124/145/106 164/201/143 159/202/144
f 80/25/24 4/34/33 149/200/142 148/189/135
