# Blender v2.93.4 OBJ File: 'manos jam.blend'
# www.blender.org
mtllib Vaso de agua.mtl
o Cylinder.006_Cylinder.002
v 0.000000 -0.174373 -0.157541
v 0.000000 0.183688 -0.183688
v 0.078771 -0.173237 -0.136435
v 0.091844 0.183708 -0.159078
v 0.136435 -0.173455 -0.078771
v 0.159078 0.184596 -0.091844
v 0.157541 -0.173497 0.000000
v 0.183688 0.185198 0.000000
v 0.136435 -0.173455 0.078771
v 0.159078 0.184596 0.091844
v 0.078771 -0.173237 0.136435
v 0.091844 0.183708 0.159078
v 0.000000 -0.174373 0.157541
v -0.000000 0.183688 0.183688
v -0.078770 -0.173237 0.136435
v -0.091844 0.183708 0.159078
v -0.136435 -0.173455 0.078771
v -0.159078 0.184596 0.091844
v -0.157541 -0.173497 -0.000000
v -0.183688 0.185198 -0.000000
v -0.136435 -0.173455 -0.078771
v -0.159078 0.184596 -0.091844
v -0.078771 -0.173237 -0.136435
v -0.091844 0.183708 -0.159078
v 0.000000 -0.137420 -0.160207
v 0.080103 -0.127328 -0.138743
v 0.138743 -0.118397 -0.080103
v 0.160207 -0.114547 0.000000
v 0.138743 -0.118397 0.080103
v 0.080103 -0.127328 0.138743
v 0.000000 -0.137420 0.160207
v -0.080103 -0.127328 0.138743
v -0.138743 -0.118397 0.080103
v -0.160207 -0.114547 -0.000000
v -0.138743 -0.118397 -0.080103
v -0.080103 -0.127328 -0.138743
v 0.000000 -0.134737 -0.153131
v 0.076566 -0.126901 -0.132616
v 0.132616 -0.118250 -0.076566
v 0.153131 -0.113433 0.000000
v 0.132616 -0.118250 0.076566
v 0.076566 -0.126901 0.132616
v 0.000000 -0.134737 0.153131
v -0.076566 -0.126901 0.132616
v -0.132616 -0.118250 0.076566
v -0.153131 -0.113433 -0.000000
v -0.132616 -0.118250 -0.076566
v -0.076566 -0.126901 -0.132616
v 0.000000 0.183696 -0.174458
v -0.174376 0.184970 -0.000000
v 0.087215 0.183708 -0.151062
v -0.151033 0.184490 0.087199
v 0.151037 0.184542 -0.087201
v 0.174379 0.185023 0.000000
v -0.000000 0.183696 0.174458
v 0.151037 0.184552 0.087201
v 0.087219 0.183814 0.151068
v -0.087215 0.183708 0.151062
v -0.151037 0.184552 -0.087201
v -0.087219 0.183814 -0.151068
v 0.000000 0.144902 -0.175575
v 0.087788 0.144922 -0.152053
v 0.152053 0.145771 -0.087788
v 0.175575 0.146346 0.000000
v 0.152053 0.145771 0.087788
v 0.087788 0.144922 0.152053
v -0.000000 0.144902 0.175575
v -0.087788 0.144922 0.152053
v -0.152053 0.145771 0.087788
v -0.175575 0.146346 -0.000000
v -0.152053 0.145771 -0.087788
v -0.087788 0.144922 -0.152053
v 0.000000 -0.134737 -0.153131
v 0.076566 -0.126901 -0.132616
v 0.132616 -0.118250 -0.076566
v 0.153131 -0.113433 0.000000
v 0.132616 -0.118250 0.076566
v 0.076566 -0.126901 0.132616
v 0.000000 -0.134737 0.153131
v -0.076566 -0.126901 0.132616
v -0.132616 -0.118250 0.076566
v -0.153131 -0.113433 -0.000000
v -0.132616 -0.118250 -0.076566
v -0.076566 -0.126901 -0.132616
vt 1.000000 0.550973
vt 1.000000 1.000000
vt 0.916667 1.000000
vt 0.916667 0.550973
vt 0.833333 1.000000
vt 0.833333 0.550973
vt 0.750000 1.000000
vt 0.750000 0.550973
vt 0.666667 1.000000
vt 0.666667 0.550973
vt 0.583333 1.000000
vt 0.583333 0.550973
vt 0.500000 1.000000
vt 0.500000 0.550973
vt 0.416667 1.000000
vt 0.416667 0.550973
vt 0.333333 1.000000
vt 0.333333 0.550973
vt 0.250000 1.000000
vt 0.250000 0.550973
vt 0.166667 1.000000
vt 0.166667 0.550973
vt 0.250000 0.022059
vt 0.250000 0.010000
vt 0.370000 0.042154
vt 0.457846 0.130000
vt 0.490000 0.250000
vt 0.457846 0.370000
vt 0.370000 0.457846
vt 0.250000 0.490000
vt 0.250000 0.477941
vt 0.363953 0.447372
vt 0.447339 0.363934
vt 0.477838 0.250000
vt 0.447340 0.136066
vt 0.363957 0.052620
vt 0.130000 0.457846
vt 0.042154 0.370000
vt 0.010000 0.250000
vt 0.042154 0.130000
vt 0.130000 0.042154
vt 0.136047 0.052628
vt 0.052665 0.136069
vt 0.022167 0.250000
vt 0.052660 0.363934
vt 0.136043 0.447380
vt 0.083333 1.000000
vt 0.083333 0.550973
vt 0.000000 1.000000
vt 0.000000 0.550973
vt 0.630000 0.457846
vt 0.750000 0.490000
vt 0.870000 0.457846
vt 0.957846 0.370000
vt 0.990000 0.250000
vt 0.957846 0.130000
vt 0.870000 0.042154
vt 0.750000 0.010000
vt 0.630000 0.042154
vt 0.542154 0.130000
vt 0.510000 0.250000
vt 0.542154 0.370000
vt 0.083333 0.500000
vt 0.000000 0.500000
vt 0.166667 0.500000
vt 0.250000 0.500000
vt 0.333333 0.500000
vt 0.416667 0.500000
vt 0.500000 0.500000
vt 0.583333 0.500000
vt 0.666667 0.500000
vt 0.750000 0.500000
vt 0.833333 0.500000
vt 0.916667 0.500000
vt 1.000000 0.500000
vt 1.000000 0.977646
vt 1.000000 0.550973
vt 0.916667 0.550973
vt 0.916667 0.977103
vt 0.833333 0.550973
vt 0.833333 0.976523
vt 0.750000 0.550973
vt 0.750000 0.976072
vt 0.666667 0.550973
vt 0.666667 0.976536
vt 0.583333 0.550973
vt 0.583333 0.977248
vt 0.500000 0.550973
vt 0.500000 0.977646
vt 0.416667 0.550973
vt 0.416667 0.977103
vt 0.333333 0.550973
vt 0.333333 0.976450
vt 0.250000 0.550973
vt 0.250000 0.975998
vt 0.166667 0.550973
vt 0.166667 0.976536
vt 0.083333 0.550973
vt 0.083333 0.977248
vt 0.000000 0.550973
vt 0.000000 0.977646
vt 1.000000 0.550973
vt 1.000000 1.000000
vt 0.916667 1.000000
vt 0.916667 0.550973
vt 0.833333 1.000000
vt 0.833333 0.550973
vt 0.750000 1.000000
vt 0.750000 0.550973
vt 0.666667 1.000000
vt 0.666667 0.550973
vt 0.583333 1.000000
vt 0.583333 0.550973
vt 0.500000 1.000000
vt 0.500000 0.550973
vt 0.416667 1.000000
vt 0.416667 0.550973
vt 0.333333 1.000000
vt 0.333333 0.550973
vt 0.250000 1.000000
vt 0.250000 0.550973
vt 0.166667 1.000000
vt 0.166667 0.550973
vt 0.370000 0.457846
vt 0.250000 0.490000
vt 0.130000 0.457846
vt 0.042154 0.370000
vt 0.010000 0.250000
vt 0.042154 0.130000
vt 0.130000 0.042154
vt 0.250000 0.010000
vt 0.370000 0.042154
vt 0.457846 0.130000
vt 0.490000 0.250000
vt 0.457846 0.370000
vt 0.083333 1.000000
vt 0.083333 0.550973
vt 0.000000 1.000000
vt 0.000000 0.550973
vn 0.2621 -0.0716 -0.9624
vn 0.7081 -0.0737 -0.7023
vn 0.9637 -0.0750 -0.2563
vn 0.9637 -0.0750 0.2563
vn 0.7081 -0.0737 0.7023
vn 0.2621 -0.0716 0.9624
vn -0.2621 -0.0716 0.9624
vn -0.7081 -0.0737 0.7023
vn -0.9637 -0.0750 0.2563
vn -0.9637 -0.0750 -0.2563
vn -0.0065 1.0000 0.0017
vn 0.0082 1.0000 -0.0021
vn -0.7081 -0.0737 -0.7023
vn -0.2621 -0.0716 -0.9624
vn -0.0000 -1.0000 -0.0000
vn -0.2624 -0.0620 -0.9630
vn -0.7081 -0.0509 -0.7043
vn -0.9652 -0.0451 -0.2575
vn -0.9652 -0.0451 0.2575
vn -0.7081 -0.0509 0.7043
vn -0.2624 -0.0620 0.9630
vn 0.2624 -0.0620 0.9630
vn 0.7081 -0.0509 0.7043
vn 0.9652 -0.0451 0.2575
vn 0.9652 -0.0451 -0.2575
vn 0.7081 -0.0509 -0.7043
vn 0.2624 -0.0620 -0.9630
vn -0.2613 0.0653 0.9630
vn -0.7083 0.0669 0.7028
vn -0.9643 0.0681 0.2560
vn -0.9643 0.0681 -0.2560
vn -0.7083 0.0669 -0.7028
vn -0.2613 0.0653 -0.9630
vn 0.2613 0.0653 -0.9630
vn 0.7083 0.0669 -0.7028
vn 0.9643 0.0681 -0.2560
vn 0.9643 0.0681 0.2560
vn 0.7083 0.0669 0.7028
vn 0.2613 0.0653 0.9630
vn -0.0000 1.0000 0.0000
vn 0.2615 -0.0784 -0.9620
vn 0.7080 -0.0807 -0.7016
vn 0.9633 -0.0825 -0.2554
vn 0.9633 -0.0825 0.2554
vn 0.7080 -0.0807 0.7016
vn 0.2615 -0.0784 0.9620
vn -0.2615 -0.0784 0.9620
vn -0.7080 -0.0807 0.7016
vn -0.9633 -0.0825 0.2554
vn -0.9633 -0.0825 -0.2554
vn -0.7080 -0.0807 -0.7016
vn -0.2615 -0.0784 -0.9620
g Cylinder.006_Cylinder.002_Hoja
usemtl Hoja
s off
f 25/1/1 2/2/1 4/3/1 26/4/1
f 26/4/2 4/3/2 6/5/2 27/6/2
f 27/6/3 6/5/3 8/7/3 28/8/3
f 28/8/4 8/7/4 10/9/4 29/10/4
f 29/10/5 10/9/5 12/11/5 30/12/5
f 30/12/6 12/11/6 14/13/6 31/14/6
f 31/14/7 14/13/7 16/15/7 32/16/7
f 32/16/8 16/15/8 18/17/8 33/18/8
f 33/18/9 18/17/9 20/19/9 34/20/9
f 34/20/10 20/19/10 22/21/10 35/22/10
f 55/23/11 14/24/11 12/25/11 10/26/11 8/27/11 6/28/11 4/29/11 2/30/11 49/31/11 51/32/11 53/33/11 54/34/11 56/35/11 57/36/11
f 49/31/12 2/30/12 24/37/12 22/38/12 20/39/12 18/40/12 16/41/12 14/24/12 55/23/12 58/42/12 52/43/12 50/44/12 59/45/12 60/46/12
f 35/22/13 22/21/13 24/47/13 36/48/13
f 36/48/14 24/47/14 2/49/14 25/50/14
f 23/51/15 1/52/15 3/53/15 5/54/15 7/55/15 9/56/15 11/57/15 13/58/15 15/59/15 17/60/15 19/61/15 21/62/15
f 23/63/16 36/48/16 25/50/16 1/64/16
f 21/65/17 35/22/17 36/48/17 23/63/17
f 19/66/18 34/20/18 35/22/18 21/65/18
f 17/67/19 33/18/19 34/20/19 19/66/19
f 15/68/20 32/16/20 33/18/20 17/67/20
f 13/69/21 31/14/21 32/16/21 15/68/21
f 11/70/22 30/12/22 31/14/22 13/69/22
f 9/71/23 29/10/23 30/12/23 11/70/23
f 7/72/24 28/8/24 29/10/24 9/71/24
f 5/73/25 27/6/25 28/8/25 7/72/25
f 3/74/26 26/4/26 27/6/26 5/73/26
f 1/75/27 25/1/27 26/4/27 3/74/27
f 49/76/28 37/77/28 38/78/28 51/79/28
f 51/79/29 38/78/29 39/80/29 53/81/29
f 39/80/30 40/82/30 54/83/30 53/81/30
f 40/82/31 41/84/31 56/85/31 54/83/31
f 41/84/32 42/86/32 57/87/32 56/85/32
f 42/86/33 43/88/33 55/89/33 57/87/33
f 43/88/34 44/90/34 58/91/34 55/89/34
f 58/91/35 44/90/35 45/92/35 52/93/35
f 52/93/36 45/92/36 46/94/36 50/95/36
f 50/95/37 46/94/37 47/96/37 59/97/37
f 59/97/38 47/96/38 48/98/38 60/99/38
f 60/99/39 48/98/39 37/100/39 49/101/39
f 46/94/40 45/92/40 44/90/40 43/88/40 42/86/40 41/84/40 40/82/40 39/80/40 38/78/40 37/77/40 48/98/40 47/96/40
g Cylinder.006_Cylinder.002_Material_separacion_3
usemtl Material_separacion_3
f 73/102/41 61/103/41 62/104/41 74/105/41
f 74/105/42 62/104/42 63/106/42 75/107/42
f 75/107/43 63/106/43 64/108/43 76/109/43
f 76/109/44 64/108/44 65/110/44 77/111/44
f 77/111/45 65/110/45 66/112/45 78/113/45
f 78/113/46 66/112/46 67/114/46 79/115/46
f 79/115/47 67/114/47 68/116/47 80/117/47
f 80/117/48 68/116/48 69/118/48 81/119/48
f 81/119/49 69/118/49 70/120/49 82/121/49
f 82/121/50 70/120/50 71/122/50 83/123/50
f 62/124/40 61/125/40 72/126/40 71/127/40 70/128/40 69/129/40 68/130/40 67/131/40 66/132/40 65/133/40 64/134/40 63/135/40
f 83/123/51 71/122/51 72/136/51 84/137/51
f 84/137/52 72/136/52 61/138/52 73/139/52
f 84/137/15 73/102/15 74/105/15 75/107/15 76/109/15 77/111/15 78/113/15 79/115/15 80/117/15 81/119/15 82/121/15 83/123/15
