# Blender v2.93.4 OBJ File: 'manos jam.blend'
# www.blender.org
mtllib Frisbie_0.mtl
o Circle
v 0.000000 0.000000 -0.667874
v -0.333937 0.000000 -0.578395
v -0.578396 0.000000 -0.333937
v -0.667874 0.000000 0.000000
v -0.578395 0.000000 0.333937
v -0.333937 0.000000 0.578395
v 0.000000 0.000000 0.667874
v 0.333937 0.000000 0.578395
v 0.578396 0.000000 0.333937
v 0.667874 0.000000 -0.000000
v 0.578396 0.000000 -0.333937
v 0.333937 0.000000 -0.578395
v -0.000000 0.039430 -0.609403
v 0.000000 0.000000 -0.667874
v -0.333937 0.000000 -0.578395
v -0.304702 0.039430 -0.527759
v -0.578396 0.000000 -0.333937
v -0.527759 0.039430 -0.304702
v -0.667874 0.000000 0.000000
v -0.609403 0.039430 0.000000
v -0.578395 0.000000 0.333937
v -0.527759 0.039430 0.304702
v -0.333937 0.000000 0.578395
v -0.304702 0.039430 0.527759
v 0.000000 0.000000 0.667874
v 0.000000 0.039430 0.609403
v 0.333937 0.000000 0.578395
v 0.304702 0.039430 0.527759
v 0.578396 0.000000 0.333937
v 0.527759 0.039430 0.304702
v 0.667874 0.000000 -0.000000
v 0.609403 0.039430 -0.000000
v 0.578396 0.000000 -0.333937
v 0.527759 0.039430 -0.304702
v 0.333937 0.000000 -0.578395
v 0.304702 0.039430 -0.527759
v -0.323716 -0.018876 -0.569297
v 0.003763 -0.018876 -0.657045
v -0.563447 -0.018876 -0.329566
v -0.651195 -0.018876 -0.002087
v -0.563447 -0.018876 0.325392
v -0.323716 -0.018876 0.565123
v 0.003763 -0.018876 0.652871
v 0.331242 -0.018876 0.565123
v 0.570973 -0.018876 0.325392
v 0.658721 -0.018876 -0.002087
v 0.570973 -0.018876 -0.329566
v 0.331242 -0.018876 -0.569297
v 0.003763 -0.018876 -0.657045
v -0.323716 -0.018876 -0.569297
v -0.563447 -0.018876 -0.329566
v -0.651195 -0.018876 -0.002087
v 0.570973 -0.018876 0.325392
v 0.658721 -0.018876 -0.002087
v 0.570973 -0.018876 -0.329566
v 0.331242 -0.018876 -0.569297
v -0.322193 0.000058 -0.560041
v 0.000390 0.000058 -0.646476
v -0.558340 0.000058 -0.323893
v -0.644776 0.000058 -0.001311
v -0.558340 0.000058 0.321272
v -0.322193 0.000058 0.557419
v 0.000390 0.000058 0.643855
v 0.322973 0.000058 0.557419
v 0.559120 0.000058 0.321272
v 0.645556 0.000058 -0.001311
v 0.559120 0.000058 -0.323893
v 0.322973 0.000058 -0.560041
v -0.322193 0.000058 -0.560041
v -0.293952 0.038147 -0.511125
v 0.000390 0.038147 -0.589994
v 0.000390 0.000058 -0.646476
v -0.558340 0.000058 -0.323893
v -0.509425 0.038147 -0.295652
v -0.644776 0.000058 -0.001311
v -0.588293 0.038147 -0.001311
v -0.558340 0.000058 0.321272
v -0.509425 0.038147 0.293031
v -0.322193 0.000058 0.557419
v -0.293952 0.038147 0.508504
v 0.000390 0.000058 0.643855
v 0.000390 0.038147 0.587373
v 0.322973 0.000058 0.557419
v 0.294732 0.038147 0.508504
v 0.559120 0.000058 0.321272
v 0.510205 0.038147 0.293031
v 0.645556 0.000058 -0.001311
v 0.589074 0.038147 -0.001311
v 0.559120 0.000058 -0.323893
v 0.510205 0.038147 -0.295652
v 0.322973 0.000058 -0.560041
v 0.294732 0.038147 -0.511125
v -0.543900 -0.018176 -0.319671
v -0.628664 -0.018176 -0.003327
v 0.636715 -0.018176 -0.003327
v 0.551950 -0.018176 0.313018
v 0.636715 -0.018176 -0.003327
v 0.551950 -0.018176 -0.319671
v -0.312319 -0.018176 -0.551252
v 0.004025 -0.018176 -0.636016
v -0.543900 -0.018176 0.313018
v -0.312319 -0.018176 0.544598
v 0.004025 -0.018176 0.629363
v 0.320370 -0.018176 0.544598
v 0.551950 -0.018176 0.313018
v 0.320370 -0.018176 -0.551252
v 0.004025 -0.018176 -0.636016
v -0.312319 -0.018176 -0.551252
v -0.543900 -0.018176 -0.319671
v -0.628664 -0.018176 -0.003327
v 0.551950 -0.018176 -0.319671
v 0.320370 -0.018176 -0.551252
vt 0.000000 0.000000
vt 0.000000 0.000000
vt 0.000000 0.000000
vt 0.000000 0.000000
vt 0.000000 0.000000
vt 0.000000 0.000000
vt 0.000000 0.000000
vt 0.000000 0.000000
vt 0.000000 0.000000
vt 0.000000 0.000000
vt 0.000000 0.000000
vt 0.000000 0.000000
vt 0.000000 0.000000
vt 0.000000 0.000000
vt 0.000000 0.000000
vt 0.000000 0.000000
vt 0.000000 0.000000
vt 0.000000 0.000000
vt 0.000000 0.000000
vt 0.000000 0.000000
vt 0.000000 0.000000
vt 0.000000 0.000000
vt 0.000000 0.000000
vt 0.000000 0.000000
vt 0.000000 0.000000
vt 0.000000 0.000000
vt 0.000000 0.000000
vt 0.000000 0.000000
vt 0.000000 0.000000
vt 0.000000 0.000000
vt 0.000000 0.000000
vt 0.000000 0.000000
vt 0.000000 0.000000
vt 0.000000 0.000000
vt 0.000000 0.000000
vt 0.000000 0.000000
vt 0.000000 0.000000
vt 0.000000 0.000000
vt 0.000000 0.000000
vt 0.000000 0.000000
vt 0.000000 0.000000
vt 0.000000 0.000000
vt 0.000000 0.000000
vt 0.000000 0.000000
vt 0.000000 0.000000
vt 0.000000 0.000000
vt 0.000000 0.000000
vt 0.000000 0.000000
vt 0.000000 0.000000
vt 0.000000 0.000000
vt 0.000000 0.000000
vt 0.000000 0.000000
vt 0.000000 0.000000
vt 0.000000 0.000000
vt 0.000000 0.000000
vt 0.000000 0.000000
vt 0.000000 0.000000
vt 0.000000 0.000000
vt 0.000000 0.000000
vt 0.000000 0.000000
vt 0.000000 0.000000
vt 0.000000 0.000000
vt 0.000000 0.000000
vt 0.000000 0.000000
vt 0.000000 0.000000
vt 0.000000 0.000000
vt 0.000000 0.000000
vt 0.000000 0.000000
vt 0.000000 0.000000
vt 0.000000 0.000000
vt 0.000000 0.000000
vt 0.000000 0.000000
vt 0.000000 0.000000
vt 0.000000 0.000000
vt 0.000000 0.000000
vt 0.000000 0.000000
vt 0.000000 0.000000
vt 0.000000 0.000000
vt 0.000000 0.000000
vt 0.000000 0.000000
vt 0.000000 0.000000
vt 0.000000 0.000000
vt 0.000000 0.000000
vt 0.000000 0.000000
vt 0.000000 0.000000
vt 0.000000 0.000000
vt 0.000000 0.000000
vt 0.000000 0.000000
vt 0.000000 0.000000
vt 0.000000 0.000000
vt 0.000000 0.000000
vt 0.000000 0.000000
vt 0.000000 0.000000
vt 0.000000 0.000000
vt 0.000000 0.000000
vt 0.000000 0.000000
vt 0.000000 0.000000
vt 0.000000 0.000000
vt 0.000000 0.000000
vt 0.000000 0.000000
vt 0.000000 0.000000
vt 0.000000 0.000000
vt 0.000000 0.000000
vt 0.000000 0.000000
vt 0.000000 0.000000
vt 0.000000 0.000000
vt 0.000000 0.000000
vt 0.000000 0.000000
vt 0.000000 0.000000
vt 0.000000 0.000000
vt 0.000000 0.000000
vt 0.000000 0.000000
vn 0.0000 0.0000 1.0000
vn 0.5728 0.5863 0.5728
vn 0.7244 0.6615 -0.1941
vn 0.6468 -0.4041 -0.6468
vn -0.2313 0.4490 0.8631
vn -0.7451 -0.6363 -0.1997
vn -0.8650 0.4451 -0.2318
vn 0.8842 -0.4025 -0.2369
vn 0.1482 -0.8199 0.5529
vn 0.4048 -0.8199 0.4048
vn 0.5529 -0.8199 0.1482
vn 0.5529 -0.8199 -0.1482
vn 0.4048 -0.8199 -0.4048
vn 0.1482 -0.8199 -0.5529
vn -0.1482 -0.8199 -0.5529
vn -0.4048 -0.8199 -0.4048
vn -0.5529 -0.8199 -0.1482
vn -0.5529 -0.8199 0.1482
vn -0.4048 -0.8199 0.4048
vn -0.1482 -0.8199 0.5529
vn 0.0000 -1.0000 -0.0000
vn 0.2313 -0.4490 -0.8631
vn 0.5308 0.6607 -0.5308
vn -0.8842 0.4025 0.2369
vn 0.2002 0.6338 -0.7472
vn -0.2104 0.5822 -0.7853
vn 0.7451 0.6363 0.1997
vn -0.6068 0.5133 -0.6068
vn -0.2214 -0.5181 -0.8262
vn 0.2214 0.5181 0.8262
vn -0.6468 0.4041 0.6468
vn 0.8650 -0.4451 0.2318
vn -0.5728 -0.5863 -0.5728
vn -0.7244 -0.6615 0.1941
vn 0.8650 -0.4450 0.2318
vn -0.1482 0.8199 -0.5529
vn -0.4048 0.8199 -0.4048
vn -0.5529 0.8199 -0.1482
vn -0.5529 0.8199 0.1482
vn -0.4048 0.8199 0.4048
vn -0.1482 0.8199 0.5529
vn 0.1482 0.8199 0.5529
vn 0.4048 0.8199 0.4048
vn 0.5529 0.8199 0.1482
vn 0.5529 0.8199 -0.1482
vn 0.4048 0.8199 -0.4048
vn 0.1482 0.8199 -0.5529
vn 0.0000 1.0000 -0.0000
vn -0.5308 -0.6607 0.5308
vn -0.2002 -0.6338 0.7472
vn 0.2104 -0.5822 0.7853
vn 0.6068 -0.5133 0.6068
vn -0.8650 0.4450 -0.2318
vn -0.0306 0.9995 0.0082
vn -0.0026 1.0000 -0.0007
vn 0.0026 1.0000 -0.0007
vn 0.0223 0.9995 0.0223
vn -0.0219 0.9995 0.0219
vn 0.0020 1.0000 -0.0020
vn -0.0007 1.0000 -0.0027
vn -0.0079 0.9995 0.0297
vn 0.0007 1.0000 -0.0027
vn -0.0019 1.0000 -0.0019
vn 0.0026 1.0000 0.0007
vn 0.0080 0.9995 0.0298
usemtl Rojos_frisbie
s off
f 4/1/1 19/2/1 21/3/1 5/4/1
f 17/5/2 51/6/2 50/7/2 15/8/2
f 8/9/1 27/10/1 29/11/1 9/12/1
f 5/4/1 21/3/1 23/13/1 6/14/1
f 5/4/3 41/15/3 40/16/3 4/1/3
f 11/17/4 47/18/4 48/19/4 12/20/4
f 6/14/1 23/13/1 25/21/1 7/22/1
f 14/23/5 49/24/5 56/25/5 35/26/5
f 3/27/6 39/28/6 40/16/6 4/1/6
f 31/29/7 54/30/7 53/31/7 29/11/7
f 7/22/1 25/21/1 27/10/1 8/9/1
f 10/32/8 46/33/8 47/18/8 11/17/8
f 16/34/9 15/8/9 14/23/9 13/35/9
f 18/36/10 17/5/10 15/8/10 16/34/10
f 20/37/11 19/2/11 17/5/11 18/36/11
f 22/38/12 21/3/12 19/2/12 20/37/12
f 24/39/13 23/13/13 21/3/13 22/38/13
f 26/40/14 25/21/14 23/13/14 24/39/14
f 28/41/15 27/10/15 25/21/15 26/40/15
f 30/42/16 29/11/16 27/10/16 28/41/16
f 32/43/17 31/29/17 29/11/17 30/42/17
f 34/44/18 33/45/18 31/29/18 32/43/18
f 36/46/19 35/26/19 33/45/19 34/44/19
f 13/35/20 14/23/20 35/26/20 36/46/20
f 16/34/21 13/35/21 36/46/21 34/44/21 32/43/21 30/42/21 28/41/21 26/40/21 24/39/21 22/38/21 20/37/21 18/36/21
f 47/18/1 55/47/1 56/25/1 48/19/1
f 37/48/1 50/7/1 51/6/1 39/28/1
f 45/49/1 53/31/1 54/30/1 46/33/1
f 38/50/1 49/24/1 50/7/1 37/48/1
f 39/28/1 51/6/1 52/51/1 40/16/1
f 46/33/1 54/30/1 55/47/1 47/18/1
f 48/19/1 56/25/1 49/24/1 38/50/1
f 12/20/22 48/19/22 38/50/22 1/52/22
f 6/14/23 42/53/23 41/15/23 5/4/23
f 33/45/24 55/47/24 54/30/24 31/29/24
f 7/22/25 43/54/25 42/53/25 6/14/25
f 29/11/1 53/31/1 45/49/1 9/12/1
f 8/9/26 44/55/26 43/54/26 7/22/26
f 19/2/27 52/51/27 51/6/27 17/5/27
f 9/12/28 45/49/28 44/55/28 8/9/28
f 1/52/29 38/50/29 37/48/29 2/56/29
f 4/1/1 40/16/1 52/51/1 19/2/1
f 15/8/30 50/7/30 49/24/30 14/23/30
f 35/26/31 56/25/31 55/47/31 33/45/31
f 9/12/32 45/49/32 46/33/32 10/32/32
f 2/56/33 37/48/33 39/28/33 3/27/33
f 60/57/1 61/58/1 77/59/1 75/60/1
f 73/61/33 69/62/33 108/63/33 109/64/33
f 64/65/1 65/66/1 85/67/1 83/68/1
f 61/58/1 62/69/1 79/70/1 77/59/1
f 61/58/34 60/57/34 94/71/34 101/72/34
f 67/73/31 68/74/31 106/75/31 98/76/31
f 62/69/1 63/77/1 81/78/1 79/70/1
f 72/79/22 91/80/22 112/81/22 107/82/22
f 59/83/27 60/57/27 94/71/27 93/84/27
f 87/85/35 85/67/35 96/86/35 95/87/35
f 63/77/1 64/65/1 83/68/1 81/78/1
f 66/88/24 67/73/24 98/76/24 97/89/24
f 70/90/36 71/91/36 72/79/36 69/62/36
f 74/92/37 70/90/37 69/62/37 73/61/37
f 76/93/38 74/92/38 73/61/38 75/60/38
f 78/94/39 76/93/39 75/60/39 77/59/39
f 80/95/40 78/94/40 77/59/40 79/70/40
f 82/96/41 80/95/41 79/70/41 81/78/41
f 84/97/42 82/96/42 81/78/42 83/68/42
f 86/98/43 84/97/43 83/68/43 85/67/43
f 88/99/44 86/98/44 85/67/44 87/85/44
f 90/100/45 88/99/45 87/85/45 89/101/45
f 92/102/46 90/100/46 89/101/46 91/80/46
f 71/91/47 92/102/47 91/80/47 72/79/47
f 70/90/48 74/92/48 76/93/48 78/94/48 80/95/48 82/96/48 84/97/48 86/98/48 88/99/48 90/100/48 92/102/48 71/91/48
f 98/76/1 106/75/1 112/81/1 111/103/1
f 99/104/1 93/84/1 109/64/1 108/63/1
f 105/105/1 97/89/1 95/87/1 96/86/1
f 100/106/1 99/104/1 108/63/1 107/82/1
f 93/84/1 94/71/1 110/107/1 109/64/1
f 97/89/1 98/76/1 111/103/1 95/87/1
f 106/75/1 100/106/1 107/82/1 112/81/1
f 68/74/5 58/108/5 100/106/5 106/75/5
f 62/69/49 61/58/49 101/72/49 102/109/49
f 89/101/8 87/85/8 95/87/8 111/103/8
f 63/77/50 62/69/50 102/109/50 103/110/50
f 85/67/1 65/66/1 105/105/1 96/86/1
f 64/65/51 63/77/51 103/110/51 104/111/51
f 75/60/6 73/61/6 109/64/6 110/107/6
f 65/66/52 64/65/52 104/111/52 105/105/52
f 58/108/30 57/112/30 99/104/30 100/106/30
f 60/57/1 75/60/1 110/107/1 94/71/1
f 69/62/29 72/79/29 107/82/29 108/63/29
f 91/80/4 89/101/4 111/103/4 112/81/4
f 65/66/53 66/88/53 97/89/53 105/105/53
f 57/112/2 59/83/2 93/84/2 99/104/2
f 40/16/54 41/15/54 101/72/54 94/71/54
f 3/27/55 4/1/55 60/57/55 59/83/55
f 10/32/56 11/17/56 67/73/56 66/88/56
f 44/55/57 45/49/57 105/105/57 104/111/57
f 41/15/58 42/53/58 102/109/58 101/72/58
f 11/17/59 12/20/59 68/74/59 67/73/59
f 1/52/60 2/56/60 57/112/60 58/108/60
f 42/53/61 43/54/61 103/110/61 102/109/61
f 12/20/62 1/52/62 58/108/62 68/74/62
f 2/56/63 3/27/63 59/83/63 57/112/63
f 9/12/64 10/32/64 66/88/64 65/66/64
f 43/54/65 44/55/65 104/111/65 103/110/65
