# Blender v2.93.4 OBJ File: 'manos jam.blend'
# www.blender.org
mtllib Piedra_1.mtl
o Cube.007_Cube.012
v -0.615892 0.056454 -0.561318
v -0.460242 0.432228 -0.556383
v 0.385159 -0.202724 -0.463226
v 0.435895 0.353335 -0.522704
v -0.626227 -0.182991 -0.100112
v -0.449503 0.411428 -0.046115
v -0.735922 -0.192649 0.355880
v -0.863753 -0.116763 0.058425
v -0.582642 0.259981 -0.593107
v -0.614560 0.144299 -0.583511
v -0.562494 0.017898 -0.583368
v 0.142869 0.482331 -0.631864
v 0.439822 -0.298163 -0.286545
v 0.603120 0.478288 0.187342
v 0.598323 0.448833 0.286854
v 0.418860 -0.254944 0.401626
v -0.388687 0.464765 -0.588853
v -0.277159 0.490475 -0.620486
v 0.528895 0.444314 0.367967
v 0.487373 -0.258412 0.325715
v 0.470063 0.393839 -0.458031
v -0.665046 -0.018632 -0.151011
v -0.831710 -0.196022 0.200462
v -0.866515 -0.034932 0.047850
v -0.687444 -0.227594 0.373317
v -0.839732 -0.139811 0.030394
v -0.717692 0.294063 0.093202
v -0.608514 0.209936 0.450840
v 0.275353 -0.450994 0.235553
v 0.531384 0.579703 0.181118
v 0.423200 0.617887 0.181181
v 0.535880 0.536956 0.288306
v 0.435755 0.568972 0.297673
v -0.543090 0.133800 -0.634885
v -0.504143 0.262061 -0.654074
v 0.296735 0.549324 -0.521661
v 0.322058 0.598382 -0.402193
v 0.206311 -0.402734 -0.303919
v -0.789214 -0.263096 0.189497
v -0.737679 -0.267372 0.286705
v -0.624783 0.288066 0.381003
vt 0.610437 0.718750
vt 0.625000 0.781259
vt 0.375000 0.781259
vt 0.389563 0.718750
vt 0.437500 0.249996
vt 0.500000 0.249995
vt 0.500000 0.281239
vt 0.437500 0.281239
vt 0.375000 0.281241
vt 0.375000 0.250000
vt 0.625000 0.406222
vt 0.625000 0.500000
vt 0.375000 0.500000
vt 0.625000 0.312481
vt 0.718778 0.500000
vt 0.686270 0.531250
vt 0.610437 0.531250
vt 0.437500 0.110677
vt 0.625000 0.125000
vt 0.625000 0.125000
vt 0.437500 0.139323
vt 0.394092 0.562500
vt 0.314652 0.562500
vt 0.812519 0.500000
vt 0.843759 0.500000
vt 0.685348 0.562500
vt 0.648720 0.687500
vt 0.685348 0.687500
vt 0.686270 0.718750
vt 0.651588 0.718750
vt 0.605909 0.687500
vt 0.125000 0.750000
vt 0.125149 0.718750
vt 0.314652 0.687500
vt 0.343741 0.750000
vt 0.125217 0.687500
vt 0.125000 0.750000
vt 0.125000 0.687500
vt 0.625000 0.250000
vt 0.625000 0.281241
vt 0.125000 0.625000
vt 0.125000 0.625000
vt 0.375000 0.125000
vt 0.874851 0.718750
vt 0.875000 0.625000
vt 0.375000 0.125000
vt 0.375000 0.062500
vt 0.375000 0.000000
vt 0.875000 0.750000
vt 0.656259 0.750000
vt 0.875000 0.500000
vt 0.875000 0.625000
vt 0.125000 0.625000
vt 0.125000 0.500000
vt 0.156241 0.500000
vt 0.375000 0.125000
vt 0.625000 1.000000
vt 0.375000 1.000000
vt 0.375000 1.000000
vn 0.7489 -0.0838 0.6573
vn -0.5869 -0.0513 -0.8080
vn 0.1298 -0.1472 -0.9806
vn 0.5119 0.3676 -0.7764
vn -0.6056 0.4240 -0.6734
vn 0.0254 -0.5794 -0.8147
vn -0.0666 0.9462 -0.3167
vn 0.3142 0.8866 0.3394
vn 0.6942 0.6803 -0.2352
vn -0.0626 -0.7052 0.7062
vn -0.7324 -0.4858 0.4770
vn -0.4603 0.4992 -0.7341
vn 0.9795 -0.1305 -0.1537
vn -0.8911 0.4482 0.0709
vn 0.5633 -0.8261 -0.0160
vn -0.8248 -0.5473 -0.1420
vn -0.9706 -0.1879 -0.1507
vn -0.8828 0.2383 0.4048
vn 0.7710 0.5464 0.3271
vn -0.2442 0.9636 0.1089
vn -0.2720 -0.9301 -0.2470
vn -0.6213 -0.2373 -0.7468
vn -0.0507 0.5480 0.8349
vn 0.0197 -0.0443 0.9988
usemtl pIEDRA
s off
f 15/1/1 19/2/1 16/3/1 20/4/1
f 10/5/2 9/6/2 35/7/2 34/8/2 11/9/2 1/10/2
f 12/11/3 4/12/3 3/13/3 34/8/3 35/7/3 18/14/3
f 12/15/4 36/16/4 21/17/4 4/12/4
f 24/18/5 27/19/5 6/20/5 22/21/5
f 3/13/6 13/22/6 38/23/6 11/9/6 34/8/6
f 18/24/7 17/25/7 37/26/7 36/16/7 12/15/7
f 30/27/8 31/28/8 33/29/8 32/30/8
f 37/26/9 31/28/9 30/27/9 14/31/9 21/17/9 36/16/9
f 25/32/10 40/33/10 29/34/10 16/35/10
f 39/36/11 40/33/11 25/32/11 7/37/11 23/38/11
f 2/39/12 17/40/12 18/14/12 35/7/12 9/6/12
f 21/17/13 14/31/13 15/1/13 20/4/13 13/22/13 3/13/13 4/12/13
f 9/6/14 10/5/14 22/21/14 6/20/14 2/39/14
f 29/34/15 38/23/15 13/22/15 20/4/15 16/35/15
f 26/41/16 39/36/16 23/38/16 8/42/16
f 10/5/17 1/10/17 5/43/17 22/21/17
f 41/44/18 27/45/18 24/18/18 8/46/18 23/47/18 7/48/18 28/49/18
f 14/31/19 30/27/19 32/30/19 19/50/19 15/1/19
f 17/25/20 2/51/20 6/52/20 27/45/20 41/44/20 33/29/20 31/28/20 37/26/20
f 38/23/21 29/34/21 40/33/21 39/36/21 26/41/21 5/53/21 1/54/21 11/55/21
f 26/56/22 8/46/22 24/18/22 22/21/22 5/43/22
f 41/44/23 28/49/23 19/50/23 32/30/23 33/29/23
f 19/2/24 28/57/24 7/58/24 25/59/24 16/3/24
