# Blender v2.93.4 OBJ File: 'manos jam.blend'
# www.blender.org
mtllib Movil.mtl
o Cube.020_Cube.022
v -0.174367 -0.125934 0.019564
v -0.138004 -0.156880 0.019564
v -0.140078 0.778163 0.019564
v -0.174367 0.743863 0.019564
v -0.138004 -0.156880 -0.016444
v -0.174367 -0.125934 -0.016444
v -0.174367 0.743863 -0.016444
v -0.140078 0.778163 -0.016444
v 0.233446 -0.156880 0.019564
v 0.269810 -0.125934 0.019564
v 0.269810 0.743863 0.019564
v 0.235521 0.778163 0.019564
v 0.269810 -0.125934 -0.016444
v 0.233446 -0.156880 -0.016444
v 0.235521 0.778163 -0.016444
v 0.269810 0.743863 -0.016444
v 0.269417 0.477936 0.010387
v 0.269417 0.481988 0.010715
v 0.269417 0.607569 0.010715
v 0.269417 0.611622 0.010387
v 0.269417 0.481988 -0.007594
v 0.269417 0.477936 -0.007266
v 0.269417 0.611622 -0.007266
v 0.269417 0.607569 -0.007594
v 0.274453 0.481988 0.010715
v 0.274453 0.477936 0.010387
v 0.274453 0.611622 0.010387
v 0.274453 0.607569 0.010715
v 0.274453 0.477936 -0.007266
v 0.274453 0.481988 -0.007594
v 0.274453 0.607569 -0.007594
v 0.274453 0.611622 -0.007266
v -0.132534 -0.151346 0.016220
v -0.167826 -0.120767 0.016220
v -0.167826 0.738716 0.016220
v -0.134547 0.772609 0.016220
v 0.263269 -0.120767 0.016220
v 0.227976 -0.151346 0.016220
v 0.229989 0.772609 0.016220
v 0.263269 0.738716 0.016220
v 0.028075 0.759950 0.012827
v 0.028075 0.762832 0.012945
v 0.025193 0.762832 0.012827
v 0.028075 0.759950 -0.009706
v 0.025193 0.762832 -0.009706
v 0.028075 0.762832 -0.009824
v 0.067288 0.759950 0.012827
v 0.070170 0.762832 0.012827
v 0.067288 0.762832 0.012945
v 0.067288 0.759950 -0.009706
v 0.067288 0.762832 -0.009824
v 0.070170 0.762832 -0.009706
v 0.025193 0.778163 -0.009706
v 0.070170 0.778163 -0.009706
v 0.067288 0.778163 -0.009824
v 0.028075 0.778163 -0.009824
v 0.025193 0.778163 0.012827
v 0.028075 0.778163 0.012945
v 0.067288 0.778163 0.012945
v 0.070170 0.778163 0.012827
vt 0.125000 0.750000
vt 0.135510 0.750000
vt 0.135510 0.750000
vt 0.125000 0.750000
vt 0.380106 0.500000
vt 0.619894 0.500000
vt 0.619894 0.750000
vt 0.380106 0.750000
vt 0.763734 0.546779
vt 0.864490 0.500000
vt 0.864490 0.750000
vt 0.763734 0.703221
vt 0.635510 0.750000
vt 0.635510 0.500000
vt 0.761977 0.545958
vt 0.738071 0.545958
vt 0.736314 0.546779
vt 0.736314 0.703221
vt 0.738071 0.704042
vt 0.761977 0.704042
vt 0.380106 0.000000
vt 0.619894 0.000000
vt 0.619894 0.250000
vt 0.380106 0.250000
vt 0.625000 0.260510
vt 0.625000 0.489490
vt 0.375000 0.489490
vt 0.375000 0.260510
vt 0.135510 0.500000
vt 0.125000 0.500000
vt 0.625000 0.000000
vt 0.625000 0.250000
vt 0.364490 0.750000
vt 0.364490 0.500000
vt 0.619894 0.750000
vt 0.380106 0.750000
vt 0.380106 0.000000
vt 0.619894 0.000000
vt 0.635510 0.750000
vt 0.864490 0.750000
vt 0.364490 0.750000
vt 0.625000 0.000000
vt 0.625000 0.989490
vt 0.619894 1.000000
vt 0.380106 1.000000
vt 0.375000 0.989490
vt 0.375000 0.760510
vt 0.625000 0.760510
vt 0.442859 0.766021
vt 0.442859 0.983980
vt 0.551570 0.983980
vt 0.551570 0.766021
vt 0.442859 0.501299
vt 0.442859 0.748701
vt 0.551570 0.748701
vt 0.551570 0.501299
vt 0.551570 0.001299
vt 0.442859 0.001299
vt 0.442859 0.248701
vt 0.551570 0.248701
vt 0.551570 0.266021
vt 0.442859 0.266021
vt 0.442859 0.483980
vt 0.551570 0.483979
vt 0.141021 0.748701
vt 0.125000 0.748701
vt 0.141021 0.750000
vt 0.141020 0.501299
vt 0.141021 0.500000
vt 0.125000 0.501299
vt 0.358979 0.748701
vt 0.358980 0.750000
vt 0.375000 0.748701
vt 0.358980 0.501299
vt 0.375000 0.501299
vt 0.358980 0.500000
vt 0.442859 0.000000
vt 0.551570 0.000000
vt 0.382578 0.750000
vt 0.617422 0.750000
vt 0.617422 1.000000
vt 0.382578 1.000000
vt 0.375000 0.745515
vt 0.375000 0.504485
vt 0.382578 0.500000
vt 0.617422 0.500000
vt 0.625000 0.504485
vt 0.625000 0.745515
vt 0.875000 0.504485
vt 0.875000 0.745515
vt 0.382578 0.250000
vt 0.375000 0.245515
vt 0.375000 0.004485
vt 0.382578 0.000000
vt 0.617422 0.000000
vt 0.625000 0.004485
vt 0.625000 0.245515
vt 0.617422 0.250000
vt 0.125000 0.504485
vt 0.125000 0.500000
vt 0.375000 0.500000
vt 0.625000 0.250000
vt 0.625000 0.500000
vt 0.125000 0.745515
vt 0.375000 0.750000
vt 0.125000 0.750000
vt 0.625000 0.750000
vt 0.625000 1.000000
vn 0.2520 0.2935 0.9222
vn 1.0000 0.0000 0.0000
vn 0.0000 1.0000 0.0000
vn -1.0000 0.0000 0.0000
vn 0.0000 -0.0000 -1.0000
vn -0.6481 -0.7616 0.0000
vn -0.7072 0.7070 0.0000
vn 0.6481 -0.7616 0.0000
vn 0.7072 0.7070 0.0000
vn 0.0000 -1.0000 0.0000
vn -0.4552 0.0000 0.8904
vn 0.4552 0.0000 0.8904
vn -0.2724 -0.2699 0.9236
vn 0.0000 -0.5158 0.8567
vn -0.2520 0.2935 0.9222
vn 0.0000 0.5172 0.8559
vn 0.2724 -0.2699 0.9236
vn 0.0000 -0.0000 1.0000
vn 0.0410 0.0410 -0.9983
vn 0.0410 0.0410 0.9983
vn -0.0410 0.0410 -0.9983
vn -0.0410 0.0410 0.9983
vn 0.7071 0.7071 0.0000
vn 0.0410 0.0000 -0.9992
vn 0.0410 0.0000 0.9992
vn 0.0000 0.0410 0.9992
vn -0.0410 0.0000 0.9992
vn -0.7071 0.7071 0.0000
vn -0.0410 0.0000 -0.9992
vn 0.0000 0.0410 -0.9992
vn 0.0000 -0.0808 -0.9967
vn 0.0000 0.0808 -0.9967
vn 0.0000 -0.0808 0.9967
vn 0.0000 0.0808 0.9967
g Cube.020_Cube.022_Material_separacion_2
usemtl Material_separacion_2
s off
f 1/1/1 2/2/1 33/3/1 34/4/1
f 13/5/2 16/6/2 11/7/2 10/8/2
f 53/9/3 8/10/3 3/11/3 57/12/3
f 57/12/3 3/11/3 12/13/3 15/14/3 8/10/3 53/9/3 56/15/3 55/16/3 54/17/3 60/18/3 59/19/3 58/20/3
f 1/21/4 4/22/4 7/23/4 6/24/4
f 6/24/5 7/23/5 8/25/5 15/26/5 16/6/5 13/5/5 14/27/5 5/28/5
f 5/29/6 2/2/6 1/1/6 6/30/6
f 3/31/7 8/32/7 7/23/7 4/22/7
f 9/33/8 14/34/8 13/5/8 10/8/8
f 15/14/9 12/13/9 11/7/9 16/6/9
f 5/29/10 14/34/10 9/33/10 2/2/10
f 10/8/11 11/7/11 40/35/11 37/36/11
f 4/22/12 1/21/12 34/37/12 35/38/12
f 11/7/13 12/13/13 39/39/13 40/35/13
f 12/13/14 3/11/14 36/40/14 39/39/14
f 9/33/15 10/8/15 37/36/15 38/41/15
f 2/2/16 9/33/16 38/41/16 33/3/16
f 3/31/17 4/22/17 35/38/17 36/42/17
f 56/15/10 55/16/10 54/17/10 60/18/10 59/19/10 58/20/10 57/12/10 53/9/10
g Cube.020_Cube.022_Clavo
usemtl Clavo
f 36/43/18 35/44/18 34/45/18 33/46/18 38/47/18 37/36/18 40/35/18 39/48/18
f 49/49/5 42/50/5 58/51/5 59/52/5
f 52/53/4 48/54/4 60/55/4 54/56/4
f 57/57/2 43/58/2 45/59/2 53/60/2
f 56/61/18 46/62/18 51/63/18 55/64/18
f 41/65/19 43/66/19 42/67/19
f 44/68/20 46/69/20 45/70/20
f 47/71/21 49/72/21 48/73/21
f 50/74/22 52/75/22 51/76/22
f 44/68/23 45/70/23 43/66/23 41/65/23
f 42/77/24 43/58/24 57/57/24 58/78/24
f 53/60/25 45/59/25 46/62/25 56/61/25
f 50/74/26 51/76/26 46/69/26 44/68/26
f 55/64/27 51/63/27 52/53/27 54/56/27
f 47/71/28 48/54/28 52/53/28 50/74/28
f 48/54/29 49/49/29 59/52/29 60/55/29
f 41/65/30 42/67/30 49/72/30 47/71/30
f 44/68/3 41/65/3 47/71/3 50/74/3
g Cube.020_Cube.022_Material.002
usemtl Material.002
f 25/79/18 28/80/18 19/81/18 18/82/18
f 28/80/2 25/79/2 26/83/2 29/84/2 30/85/2 31/86/2 32/87/2 27/88/2
f 32/87/3 23/89/3 20/90/3 27/88/3
f 21/91/4 22/92/4 17/93/4 18/94/4 19/95/4 20/96/4 23/97/4 24/98/4
f 21/91/5 24/98/5 31/86/5 30/85/5
f 29/84/31 22/99/31 21/100/31 30/101/31
f 23/102/32 32/103/32 31/86/32 24/98/32
f 17/104/33 26/83/33 25/105/33 18/106/33
f 27/107/34 20/108/34 19/81/34 28/80/34
f 22/99/10 29/84/10 26/83/10 17/104/10
l 53 59
